<svg xmlns="http://www.w3.org/2000/svg" viewBox="0 0 567.03 125.76"><defs><style>.cls-1{fill:#fff;}</style></defs><g id="レイヤー_2" data-name="レイヤー 2"><g id="レイヤー_8" data-name="レイヤー 8"><path class="cls-1" d="M3.85,113.64c1.5.36,1.83.49,1.83.7s-.07.22-.48.31a14,14,0,0,1-1.06,2.75c.55.1.72.18.72.33s-.08.2-.44.32v6.31c0,.48-.41.61-1,.61-.39,0-.4,0-.4-.43l.1-3.91v-1.69a14.24,14.24,0,0,1-1,1.21l-.1-.09a16.74,16.74,0,0,0,1.74-5.71c0-.12,0-.23,0-.34s0-.19,0-.29Zm7.06,2c.8.3,1.08.46,1.08.59s-.13.23-.42.24a11.14,11.14,0,0,1-1.07,1.45,11.85,11.85,0,0,0,2.86.71l0,.15a1.6,1.6,0,0,0-.82.93c-.12.27-.23.35-.3.35a1.27,1.27,0,0,1-.5-.13,6.42,6.42,0,0,1-2-1.25,6.48,6.48,0,0,1-1.7.91,11.53,11.53,0,0,1-1.64.4l.06,2.4c0,.47-.48.62-1,.62-.31,0-.38,0-.37-.42l.06-3.36v-2.35c0-.53,0-.77-.12-.88l.08-.1c1.48.2,1.66.29,1.66.48s-.08.21-.44.32v2.55l0,.59a8.24,8.24,0,0,0,.94-.47A6.91,6.91,0,0,0,9,118a5.06,5.06,0,0,1-.76-1.84,6.76,6.76,0,0,1-1.75,1.49l-.07-.08a9.07,9.07,0,0,0,1.36-3.13,1.57,1.57,0,0,0,.07-.68l.12-.06c1.3.37,1.72.53,1.72.7s-.14.25-.5.29a5.6,5.6,0,0,1-.42.73H11c.63-.81.77-.94.87-.94s.27.08.74.47.48.44.48.53-.06.16-.26.16Zm.9,5.92c1.17.8,1.36,1,1.36,1.15s-.09.23-.52.19c-2.18,1.56-4.62,2-7.57,2v-.11a11.66,11.66,0,0,0,6.25-2.73,2.06,2.06,0,0,0,.38-.48Zm-1.26-1.26c1.13.7,1.32.85,1.32,1s-.07.2-.5.19a10.54,10.54,0,0,1-5.27,1.77l0-.11A9.14,9.14,0,0,0,10,120.92a1.51,1.51,0,0,0,.41-.58Zm-1.13-1.24c1.08.59,1.26.73,1.26.92s-.06.18-.45.19a8.21,8.21,0,0,1-3.67,1.4l-.06-.11a7.61,7.61,0,0,0,2.59-1.94,1.13,1.13,0,0,0,.23-.41Zm-.82-3.42-.26.37a3.4,3.4,0,0,0,1.15,1.35,7.93,7.93,0,0,0,.72-1.31,1.54,1.54,0,0,0,.12-.41Z"/><path class="cls-1" d="M22.82,118.79H21c-.93,0-2.09,0-2.8.09l-.11-.4c.79.07,2,.09,2.91.09h1.81V115a2.27,2.27,0,0,0-.14-1.06l.09-.08c1.58.18,2.05.32,2.05.55s-.13.26-.47.38v3.79h2.51c.67-1,.81-1.14.94-1.14s.3.12.74.5.56.55.56.68-.07.18-.29.18H24.35v5.12h2.11c.68-1,.81-1.11.94-1.11s.26.08.69.46.56.55.56.68-.07.18-.29.18H21.51c-.92,0-2.09,0-2.79.1l-.11-.41c.79.07,2,.1,2.9.1h1.31Z"/><path class="cls-1" d="M37.2,123.25c-1,0-2.27,0-2.88.1l-.12-.46c.69.07,2,.1,3,.1h5.27c.78-1.12.91-1.29,1.06-1.29s.29.09.79.54.72.68.72.82-.07.19-.41.19Zm.9-6.91c-1,0-2.27,0-2.88.1L35.1,116c.68.07,2,.1,3,.1h3.35c.78-1,1-1.21,1.07-1.21s.24.06.79.51.71.63.71.77-.07.19-.3.19Z"/><path class="cls-1" d="M56.76,115.7c0,.15-.09.24-.32.3v2.19h1.41c.7-1,.81-1.06.91-1.06s.24.06.67.44.57.53.57.66-.07.18-.28.18H56.44V121H58.5c.7-1,.83-1.1.93-1.1s.31.11.81.52.57.54.57.65-.05.14-.24.14H56.46l.06,3.12c0,.45-.39.65-1.09.65-.44,0-.52-.06-.52-.44l.06-3.33H52.39a24.62,24.62,0,0,0-2.65.1l-.11-.41c.59.06,1.29.09,2.27.1v-2.39a2.16,2.16,0,0,0-.14-.92l.08-.08a6.36,6.36,0,0,1,1.69.57H55V115.7H53.2a9.44,9.44,0,0,1-3.35,3.14l-.08-.09a11.56,11.56,0,0,0,2.33-4.16,2.45,2.45,0,0,0,.13-.81l.12-.06c1.6.44,2,.62,2,.82s-.19.3-.62.33a7,7,0,0,1-.36.61h4.59c.71-1,.83-1.11.93-1.11s.33.13.76.5.54.54.54.65-.07.18-.27.18ZM55,121v-2.6H53.57a.52.52,0,0,1-.28.18V121Z"/><path class="cls-1" d="M67.35,113.64c1.5.36,1.83.49,1.83.7s-.07.22-.48.31a14,14,0,0,1-1.07,2.75c.56.1.72.18.72.33s-.08.2-.43.32v6.31c0,.48-.42.61-1,.61-.39,0-.4,0-.4-.43l.09-3.91v-1.69a12.64,12.64,0,0,1-1,1.21l-.09-.09a16.5,16.5,0,0,0,1.73-5.71,2,2,0,0,0,0-.34,1.5,1.5,0,0,0,0-.29Zm7.05,2c.8.3,1.09.46,1.09.59s-.13.23-.43.24A11.13,11.13,0,0,1,74,117.92a11.62,11.62,0,0,0,2.86.71l0,.15a1.62,1.62,0,0,0-.81.93c-.12.27-.24.35-.31.35a1.36,1.36,0,0,1-.5-.13,6.54,6.54,0,0,1-2-1.25,6.33,6.33,0,0,1-1.7.91,11.21,11.21,0,0,1-1.64.4l.06,2.4c0,.47-.47.62-1,.62-.3,0-.37,0-.36-.42l.06-3.36v-2.35a1.74,1.74,0,0,0-.12-.88l.07-.1c1.49.2,1.67.29,1.67.48s-.09.21-.44.32v3.14a8.38,8.38,0,0,0,1-.47A6.87,6.87,0,0,0,72.46,118a5.22,5.22,0,0,1-.75-1.84A6.93,6.93,0,0,1,70,117.65l-.07-.08a9.47,9.47,0,0,0,1.36-3.13,1.74,1.74,0,0,0,.07-.68l.12-.06c1.29.37,1.72.53,1.72.7s-.14.25-.51.29a7,7,0,0,1-.41.73h2.25c.63-.81.77-.94.88-.94s.27.08.73.47.48.44.48.53,0,.16-.26.16Zm.91,5.92c1.17.8,1.36,1,1.36,1.15s-.1.23-.52.19c-2.19,1.56-4.62,2-7.57,2v-.11a11.62,11.62,0,0,0,6.24-2.73,1.83,1.83,0,0,0,.38-.48Zm-1.26-1.26c1.13.7,1.32.85,1.32,1s-.07.2-.51.19a10.51,10.51,0,0,1-5.27,1.77l0-.11a9,9,0,0,0,3.93-2.26,1.69,1.69,0,0,0,.42-.58Zm-1.14-1.24c1.09.59,1.27.73,1.27.92s-.06.18-.45.19a8.25,8.25,0,0,1-3.68,1.4l-.06-.11a7.51,7.51,0,0,0,2.59-1.94,1.16,1.16,0,0,0,.24-.41Zm-.81-3.42-.26.37A3.38,3.38,0,0,0,73,117.36a7.25,7.25,0,0,0,.72-1.31,1.24,1.24,0,0,0,.12-.41Z"/><path class="cls-1" d="M88.29,114.56c.58-.65.78-.8.89-.8s.41.17.88.62c.62.59.66.68.66.86s-.16.34-.8.39a22.63,22.63,0,0,1-2.68,1.26c.14,0,.18.1.18.17s-.08.25-.47.38v2.14l.11,3.8a1.71,1.71,0,0,1-1.89,1.56c-.34,0-.39,0-.42-.28-.07-.49-.44-1-1.44-1.24v-.13a12,12,0,0,0,1.34,0c.58,0,.75-.13.75-.55v-4.88a2.8,2.8,0,0,0-.14-1.17l.08-.08,1.39.19a17.75,17.75,0,0,0,1.74-2H83.76c-1,0-1.7,0-2.4.1l-.11-.41c.79.06,1.53.08,2.52.08Z"/><path class="cls-1" d="M97.55,118.24a20.93,20.93,0,0,0-2.18.09l-.11-.4.33,0a10.13,10.13,0,0,0,.67-2.9,1.87,1.87,0,0,0,0-.57l.1-.06c1.4.38,1.7.51,1.7.69s-.13.22-.46.27c-.13.28-.27.54-.41.79h1v-1.52a1.67,1.67,0,0,0-.13-.8l.09-.09c1.45.16,1.74.28,1.74.45s-.11.22-.42.32v1.64h.52c.6-.79.73-.93.83-.93s.27.11.57.37c.47.41.56.5.56.61s-.07.17-.27.17H99.41V118h.8c.62-.82.76-1,.86-1s.28.1.58.37c.51.42.58.53.58.64s-.07.18-.27.18H99.41v1.32h.78c.44-.55.57-.67.66-.67s.28.11.7.47.46.44.46.56-.11.2-.39.36V121l.07,1.58a1.21,1.21,0,0,1-1.34,1.13c-.21,0-.24,0-.3-.29a.92.92,0,0,0-.59-.8l0,1.75c0,.43-.44.63-.94.63s-.49,0-.49-.35l.08-4.84h-.62a.57.57,0,0,1-.2.15v3.56c0,.37-.42.56-.94.56-.33,0-.37,0-.37-.35l.08-2.65v-1a2.08,2.08,0,0,0-.13-.94l.08-.09a7.3,7.3,0,0,1,1.42.5h.68v-1.32Zm.58-1.85H97A8,8,0,0,1,95.78,118c.56,0,1.09,0,1.77,0h.58Zm1.31,6a4.06,4.06,0,0,0,.67,0c.17,0,.22-.13.22-.4v-2.16h-.92Zm3-4.2v-2.11a1.72,1.72,0,0,0-.13-.9l.09-.09c1.53.2,1.74.3,1.74.49s-.11.21-.43.32v2.31l.06,3.43c0,.46-.44.62-1,.62-.33,0-.38,0-.38-.42Zm3.6,5.5c0,.73-.93,1.29-1.77,1.29-.33,0-.34,0-.4-.28-.14-.62-.27-.91-1.29-1.15v-.13a10.41,10.41,0,0,0,1.54-.06c.31,0,.47-.14.47-.49V115a2.51,2.51,0,0,0-.14-1.11l.08-.09c1.47.18,1.86.32,1.86.5s-.1.25-.45.35v3.57Z"/><path class="cls-1" d="M113.79,113.69c1.59.46,1.86.6,1.86.8s-.08.23-.49.29a16.53,16.53,0,0,1-1,2.25c.61.11.79.19.79.34s-.09.2-.44.32v6.67c0,.48-.39.61-1,.61-.38,0-.46,0-.46-.43l.09-3.91v-2.17a8.21,8.21,0,0,1-1.53,1.46l-.1-.09a14.27,14.27,0,0,0,2.15-5.45,1.86,1.86,0,0,0,0-.63Zm3.57,3a8.42,8.42,0,0,1-2.44,2.46l-.07-.08a12.76,12.76,0,0,0,1.94-4.2,2.88,2.88,0,0,0,.13-1l.09-.07c1.69.43,1.91.59,1.91.8s-.16.27-.58.33a12.81,12.81,0,0,1-.83,1.57h3c.7-1,.82-1.11.93-1.11s.26.08.7.46.56.55.56.68-.07.18-.29.18h-3c0,.18-.12.28-.35.37v2.09h1.08c.64-.86.78-1,.88-1s.26.09.63.43.54.47.54.61-.07.17-.26.17h-2.87l0,2.45h1c.64-.86.78-1,.88-1s.23.06.62.42.55.48.55.62-.07.18-.26.18h-2.83l0,2.31c0,.43-.31.67-1.13.67-.4,0-.46,0-.46-.46l.09-5.07v-2.79Z"/><path class="cls-1" d="M133.32,124.26c0,.53-.46.72-1.17.72-.43,0-.49,0-.49-.42l.07-4.63H129.3v.53c0,.46-.55.63-1.08.63s-.47-.07-.47-.43l.09-2.54v-1.06a2.61,2.61,0,0,0-.11-1l.08-.09a6.2,6.2,0,0,1,1.72.59h2.22V115a2.1,2.1,0,0,0-.16-1.1l.08-.09c1.81.25,2,.4,2,.54s-.09.26-.44.38v1.89h2.36c.45-.59.57-.71.67-.71s.38.08.85.43.61.58.61.71-.11.21-.45.36v1l.1,1.89c0,.44-.36.6-1.12.6-.43,0-.48-.06-.48-.42v-.55h-2.52Zm-1.59-4.54,0-1.37v-1.57h-2.18a.56.56,0,0,1-.27.17v2.77Zm4,0v-2.94h-2.54v1.61l0,1.33Z"/><path class="cls-1" d="M144.35,124.44c0,.4-.37.54-1,.54-.31,0-.37,0-.37-.35l.09-6.42v-3.47a2.69,2.69,0,0,0-.09-.82l.08-.08a5.9,5.9,0,0,1,1.52.54h1.36c.4-.53.52-.64.61-.64s.27.12.61.39.51.45.51.58-.12.22-.38.34V116l.07,1.94c0,.46-.42.58-1,.58-.32,0-.36-.06-.36-.35v-.32h-1.64Zm1.64-8.52V114.6h-1.41c0,.07-.1.12-.23.18v1.14Zm-1.64,1.67H146v-1.45h-1.64Zm4.08,1.94c.45-.59.55-.68.65-.68s.21,0,.75.49.52.51.52.61-.09.21-.44.38v1l.06,1.58c0,.52-.21.65-1,.65-.31,0-.38-.06-.38-.42v-.24h-1.73v.45c0,.35-.28.56-.86.56-.36,0-.45,0-.45-.43l.07-2.14V120a2.36,2.36,0,0,0-.1-1l.08-.08a4.47,4.47,0,0,1,1.52.55Zm-1.28.21c0,.06-.11.1-.28.17v1.14h1.73v-1.31Zm-.28,2.93h1.73v-1.4h-1.73Zm2.67-4.86V118c0,.37-.4.51-1,.51-.28,0-.35-.08-.34-.36l.07-2.19v-1.19a2.25,2.25,0,0,0-.09-.76l.08-.09a11.7,11.7,0,0,1,1.44.51h1.44c.44-.62.65-.7.75-.7s.25.07.73.45.48.45.48.58-.11.22-.38.35v2.71l.11,6.07c0,.82-.76,1.15-1.69,1.15-.2,0-.21,0-.27-.31a1.32,1.32,0,0,0-1.11-1.05v-.12a4.89,4.89,0,0,0,1.24-.05c.21,0,.32-.11.32-.5v-5.15Zm1.8-3.21h-1.56a.48.48,0,0,1-.24.18v1.14h1.8Zm-1.8,1.54v1.45h1.8v-1.45Z"/><path class="cls-1" d="M165.4,119c0,.18-.12.28-.34.35v1.49h1.33c.56-.78.79-1.06.9-1.06s.24.07.74.49.58.54.58.64-.06.15-.25.15h-3.3v2c0,.35,0,.41.73.41,1.05,0,1.27-.07,1.66-.47a4.62,4.62,0,0,0,.84-1.39l.12,0a10.78,10.78,0,0,0-.11,1.27.52.52,0,0,0,.17.46.71.71,0,0,1,.23.49.72.72,0,0,1-.42.69,6.46,6.46,0,0,1-2.66.28c-1.77,0-2-.23-2-1.32l.05-2.45h-1.12a4.24,4.24,0,0,1-1.48,2.93A6,6,0,0,1,158,125l0-.12a4.75,4.75,0,0,0,2.38-1.55,4.38,4.38,0,0,0,.79-2.32c-1.19,0-2.25,0-2.85.09l-.1-.4c.67.07,1.72.09,3,.09,0-.14,0-.3,0-.45V119c-.33,0-.62,0-.86.06l-.06-.21a10.38,10.38,0,0,1-2.29,1l0-.11a8.12,8.12,0,0,0,2.29-2,.59.59,0,0,1-.23,0c-.35,0-.56-.18-.63-.62a1.63,1.63,0,0,0-.78-1.35l0-.09c1.24,0,2.1.5,2.1,1.27v.06a7.6,7.6,0,0,0,.94-2.09h-1.16a16.06,16.06,0,0,0-1.79.1l-.1-.41a12.57,12.57,0,0,0,1.87.1h1.08c.48-.6.65-.73.75-.73s.25.07.8.56.56.55.56.69-.21.25-.59.31a7,7,0,0,1-2.56,3.06c.65.06,1.5.07,2.59.07h1.07c.54-.74.77-1,.86-1s.19,0,.66.43.58.5.58.61-.06.14-.25.14Zm-2.5,0c0,.21-.13.29-.34.35v1a4.1,4.1,0,0,1,0,.5h1.11V119Zm2.68-5.14c1.19.71,1.35.92,1.35,1.06s-.15.23-.55.21a10.84,10.84,0,0,1-1.41.69,6.61,6.61,0,0,0,1.06.91,7.33,7.33,0,0,0,.75-1.15,1.38,1.38,0,0,0,.16-.47l.12,0c1.26.74,1.42.93,1.42,1.09s-.16.26-.58.21a10.14,10.14,0,0,1-1.42.62,8.37,8.37,0,0,0,2.68.88V118a2.42,2.42,0,0,0-1.1,1.2c-.09.16-.14.23-.24.23a.93.93,0,0,1-.37-.1,7,7,0,0,1-3.79-5.48l.12,0a6.17,6.17,0,0,0,.9,1.64,11.09,11.09,0,0,0,.62-1.07,1.5,1.5,0,0,0,.17-.47Z"/><path class="cls-1" d="M182.77,118.87c.65-.86.77-1,.9-1s.3.1.74.46.57.48.57.59-.07.18-.25.18h-4.4a.28.28,0,0,1-.12.2,6.88,6.88,0,0,0,1.07,1.86,6.73,6.73,0,0,0,.93-1.25,1.42,1.42,0,0,0,.13-.38l.11,0c1.37.74,1.54,1,1.54,1.16s-.11.22-.71.2a14,14,0,0,1-1.67.69,6.9,6.9,0,0,0,3.52,1.85v.13a2.7,2.7,0,0,0-1.2,1.23c-.06.11-.08.17-.19.17a.86.86,0,0,1-.34-.1,5,5,0,0,1-2.08-1.71,36.34,36.34,0,0,1-5.14,1.89.79.79,0,0,1-.2,0,.28.28,0,0,1-.21-.16,13.48,13.48,0,0,1-.65-1.34l0-.1a8.48,8.48,0,0,0,1.2,0l.73-.07v-1.6a14.57,14.57,0,0,1-3.22,1.38l-.06-.1a11,11,0,0,0,4.16-3.89H176.9c-1,0-2.28,0-2.89.09l-.11-.4c.69.07,2,.09,3,.09h1.77v-1.62h-.3c-1,0-2.16,0-2.9.09l-.1-.4c.8.07,2,.09,3,.09h.3v-1.35h-1.11c-1.21,0-2.28,0-2.89.1l-.11-.4c.69.07,1.75.09,3,.09h1.11v-.69a2,2,0,0,0-.14-1l.09-.08c1.71.21,2,.31,2,.5s-.1.25-.45.38v.87h2.05c.57-.79.8-1.06.9-1.06s.25.07.75.49.57.53.57.64,0,.14-.24.14h-4V117h1.32c.58-.77.79-1,.88-1s.27.09.65.4.59.54.59.65-.08.13-.28.13h-3.16v1.62Zm-4.31,4.27c.88-.1,1.75-.24,2.62-.39a8.39,8.39,0,0,1-1.08-3.39l-.23,0a12.46,12.46,0,0,1-1.36,1.36c.38.1.45.19.45.27s-.09.2-.4.3Z"/><path class="cls-1" d="M200.37,113.81h.48l-10.16,11.1h-.47Z"/><path class="cls-1" d="M207.39,113.64c1.5.36,1.83.49,1.83.7s-.07.22-.48.31a14.61,14.61,0,0,1-1.06,2.75c.55.1.72.18.72.33s-.09.2-.44.32v6.31c0,.48-.41.61-1,.61-.39,0-.4,0-.4-.43l.1-3.91v-1.69c-.31.41-.67.81-1,1.21l-.1-.09a16.74,16.74,0,0,0,1.74-5.71c0-.12,0-.23,0-.34s0-.19,0-.29Zm7.05,2c.81.3,1.09.46,1.09.59s-.13.23-.43.24a10.27,10.27,0,0,1-1.06,1.45,11.73,11.73,0,0,0,2.86.71l0,.15a1.6,1.6,0,0,0-.82.93c-.12.27-.24.35-.31.35a1.27,1.27,0,0,1-.49-.13,6.31,6.31,0,0,1-2-1.25,6.48,6.48,0,0,1-1.7.91,11.67,11.67,0,0,1-1.65.4l.06,2.4c0,.47-.47.62-.95.62-.31,0-.38,0-.37-.42l.06-3.36v-2.35c0-.53,0-.77-.12-.88l.07-.1c1.49.2,1.67.29,1.67.48s-.08.21-.44.32v3.14a7.63,7.63,0,0,0,1-.47,6.91,6.91,0,0,0,1.68-1.37,5.06,5.06,0,0,1-.76-1.84,6.76,6.76,0,0,1-1.75,1.49l-.07-.08a9.07,9.07,0,0,0,1.36-3.13,1.74,1.74,0,0,0,.07-.68l.12-.06c1.3.37,1.72.53,1.72.7s-.14.25-.5.29a7,7,0,0,1-.42.73h2.26c.62-.81.77-.94.87-.94s.27.08.73.47.49.44.49.53-.06.16-.26.16Zm.91,5.92c1.17.8,1.36,1,1.36,1.15s-.09.23-.52.19c-2.18,1.56-4.62,2-7.57,2v-.11a11.66,11.66,0,0,0,6.25-2.73,1.8,1.8,0,0,0,.37-.48Zm-1.26-1.26c1.13.7,1.32.85,1.32,1s-.07.2-.51.19a10.51,10.51,0,0,1-5.26,1.77l0-.11a9.14,9.14,0,0,0,3.94-2.26,1.51,1.51,0,0,0,.41-.58ZM213,119.06c1.08.59,1.26.73,1.26.92s-.06.18-.45.19a8.21,8.21,0,0,1-3.67,1.4l-.06-.11a7.57,7.57,0,0,0,2.58-1.94,1.16,1.16,0,0,0,.24-.41Zm-.82-3.42-.26.37a3.4,3.4,0,0,0,1.15,1.35,7.93,7.93,0,0,0,.72-1.31,1.2,1.2,0,0,0,.11-.41Z"/><path class="cls-1" d="M226.2,118.79h-1.82c-.92,0-2.09,0-2.8.09l-.11-.4c.8.07,2,.09,2.91.09h1.82V115a2.41,2.41,0,0,0-.14-1.06l.08-.08c1.58.18,2.05.32,2.05.55s-.13.26-.47.38v3.79h2.52c.66-1,.8-1.14.93-1.14s.31.12.74.5.56.55.56.68-.07.18-.28.18h-4.47v5.12h2.12c.67-1,.8-1.11.93-1.11s.26.08.7.46.55.55.55.68-.07.18-.28.18h-6.85c-.92,0-2.09,0-2.8.1l-.11-.41c.79.07,2,.1,2.91.1h1.31Z"/><path class="cls-1" d="M240.5,119.49c-1,0-2.26,0-2.88.1l-.12-.46c.69.08,2,.1,3,.1h5.27c.78-1.12.91-1.29,1.06-1.29s.29.1.8.54.72.68.72.82-.07.19-.42.19Z"/><path class="cls-1" d="M260.23,115.7c0,.15-.09.24-.32.3v2.19h1.41c.69-1,.81-1.06.91-1.06s.23.06.67.44.57.53.57.66-.07.18-.29.18h-3.27V121H262c.69-1,.82-1.1.93-1.1s.31.11.8.52.58.54.58.65-.06.14-.25.14h-4.11l.06,3.12c0,.45-.39.65-1.08.65-.44,0-.52-.06-.52-.44l.06-3.33h-2.58a24.83,24.83,0,0,0-2.66.1l-.1-.41c.59.06,1.28.09,2.26.1v-2.39a2,2,0,0,0-.14-.92l.09-.08a6.2,6.2,0,0,1,1.68.57h1.46V115.7h-1.79a9.33,9.33,0,0,1-3.34,3.14l-.08-.09a11.56,11.56,0,0,0,2.33-4.16,2.45,2.45,0,0,0,.13-.81l.11-.06c1.61.44,2,.62,2,.82s-.18.3-.61.33a7,7,0,0,1-.37.61h4.6c.71-1,.83-1.11.93-1.11s.33.13.76.5.54.54.54.65-.07.18-.27.18ZM258.45,121v-2.6H257a.57.57,0,0,1-.28.18V121Z"/><path class="cls-1" d="M270.25,117.19a9.2,9.2,0,0,1-1.16,2.35l-.12-.07a28.32,28.32,0,0,0,.48-4.18,1.94,1.94,0,0,0-.06-.61l.09-.07a6.2,6.2,0,0,1,1.44.53v-.31a2.46,2.46,0,0,0-.13-1l.09-.07c1.46.18,1.8.32,1.8.49s0,.22-.47.37V117h.09c.57-.75.7-.86.8-.86s.23.08.56.36.48.47.48.56-.06.16-.24.16h-1.69v2.17c.58-.2,1.18-.43,1.74-.67l.07.1c-.57.47-1.17,1-1.81,1.43v.55l.07,3.46c0,.62-.41.75-1,.75-.37,0-.42,0-.42-.45l.08-3.4c-.29.2-.6.39-.9.57a.68.68,0,0,1-.36.14.25.25,0,0,1-.26-.15,9.26,9.26,0,0,1-.53-1.35l.05-.11A5.81,5.81,0,0,0,270,120l.92-.25v-2.59Zm.67-.22v-1.48a1.18,1.18,0,0,1-.26.1,13.28,13.28,0,0,1-.35,1.38Zm6.49-1.38c.63-.82.72-.91.82-.91s.24.1.56.37.54.48.54.6-.07.15-.27.15h-2.43v2.06H278c.62-.85.73-1,.84-1s.2,0,.72.5.43.4.43.53-.08.14-.28.14h-4.34c-.9,0-1.82,0-2.55.1l-.11-.41c.77.07,1.7.1,2.58.1V115.8c-.68,0-1.41,0-2.06.1l-.11-.41c.71.06,1.49.1,2.17.1v-.91a1.83,1.83,0,0,0-.12-.82l.08-.08c1.62.2,1.89.32,1.89.48s-.11.23-.47.36v1Zm.88,4.42c.47-.73.66-.9.75-.9s.26.11.59.42.42.42.42.51-.07.18-.27.18h-1.62V121l.1,2.6c0,.93-.84,1.35-1.76,1.35-.31,0-.38,0-.42-.27,0-.45-.27-.86-1.08-1.1v-.12a12.68,12.68,0,0,0,1.39,0c.3,0,.4-.1.4-.49v-2.74h-1.4c-1,0-1.79,0-2.52.09l-.11-.4c.8.07,1.61.1,2.63.1h1.4v-1a1.63,1.63,0,0,0-.12-.8l.09-.08c1.23.12,1.79.24,1.79.43s0,.2-.39.31V120Zm-4.59.59c1.39.05,2.21.68,2.21,1.56a.75.75,0,0,1-.79.83c-.43,0-.65-.24-.7-.81a1.94,1.94,0,0,0-.75-1.5Z"/><path class="cls-1" d="M286.4,118c1.38.29,1.72.39,1.72.61s-.12.23-.48.28c-.05.25-.1.5-.14.74h1c.48-.58.59-.67.7-.67s.23.06.69.43.56.5.56.64-.1.19-.44.34c0,.55-.18,1.54-.33,2.33a2.47,2.47,0,0,1-.82,1.68,2.77,2.77,0,0,1-1.44.41c-.26,0-.34,0-.37-.28-.1-.62-.28-.83-1-1.12l0-.13a8.42,8.42,0,0,0,1.21.11.8.8,0,0,0,.89-.66,11.7,11.7,0,0,0,.45-2.86h-1.2a7.82,7.82,0,0,1-3.17,5.09l-.08-.08a11.74,11.74,0,0,0,2.06-6,3.35,3.35,0,0,0,0-.52,1.07,1.07,0,0,1-.8.27c-.31,0-.39-.05-.39-.41l.07-1.88v-1.09a2.54,2.54,0,0,0-.12-1l.08-.08a6.68,6.68,0,0,1,1.48.57h1.85c.45-.55.57-.69.69-.69s.23,0,.71.45.56.54.56.66-.07.19-.43.39v.63l.07,1.57c0,.53-.14.77-1,.77-.34,0-.39,0-.39-.34v-.39H286.4Zm2.27-.48v-2.63h-2c0,.08-.11.12-.27.18v2.45Zm2.43.61v-2a1.67,1.67,0,0,0-.13-.89l.08-.08c1.65.2,1.81.28,1.81.47s-.08.22-.44.33v2.19l.06,3.43c0,.46-.46.62-1.07.62-.34,0-.38,0-.38-.42Zm3.86,5.53c0,.73-1,1.29-1.85,1.29-.33,0-.38-.05-.42-.31-.07-.49-.3-.83-1.38-1.12v-.13a12.53,12.53,0,0,0,1.68-.06c.32,0,.48-.13.48-.49v-7.7a2.55,2.55,0,0,0-.14-1.16l.08-.09c1.47.18,1.9.31,1.9.49s-.08.25-.47.38v3.43Z"/><path class="cls-1" d="M300.43,116.58c1.64-.07,2.32.54,2.32,1.34a.75.75,0,0,1-.84.77c-.37,0-.6-.23-.67-.7a1.48,1.48,0,0,0-.84-1.29Zm.16,4.89a2,2,0,0,0,.46,0,.41.41,0,0,0,.4-.25,57.75,57.75,0,0,0,2.41-5.54l.1.05c-.61,2.67-.91,4.07-1.37,5.69a2.35,2.35,0,0,0-.13.58,1,1,0,0,0,.05.41,4.24,4.24,0,0,1,.41,1.51.94.94,0,0,1-1,1,.6.6,0,0,1-.68-.68,6.47,6.47,0,0,1,.09-.93,6.72,6.72,0,0,0,.05-.71c0-.57,0-.74-.81-1.1Zm.76-7.57c1.64-.08,2.33.53,2.33,1.33a.77.77,0,0,1-.78.8c-.52,0-.67-.25-.74-.73a1.49,1.49,0,0,0-.84-1.29Zm1.6,10.94a8.34,8.34,0,0,0,2.63-1.65,2.8,2.8,0,0,0,.6-.74l.12,0c1.23.67,1.43.89,1.43,1.1s-.09.2-.32.2l-.32,0A12,12,0,0,1,303,125Zm1.92-7.54a.88.88,0,0,1-.33.07c-.36,0-.68-.18-.68-.59a.83.83,0,0,1,.39-.7,1.3,1.3,0,0,0,.6-1.33l.11,0a2.77,2.77,0,0,1,.39.79h1.57v-.93a2,2,0,0,0-.1-.77l.08-.08c1.47.2,1.82.32,1.82.51s-.1.23-.45.35v.92H310c.41-.5.48-.6.58-.6s.21.06.66.55.49.58.49.78-.15.23-.89.25l-.5.21c.47.4.52.47.52.57s-.07.12-.26.12H308.5c0,.17-.06.28-.3.35v.88h1.21c.45-.56.59-.62.68-.62s.32.1.68.38.52.48.52.6-.13.25-.45.39v.82l.07,1.86c0,.46-.39.59-1,.59-.36,0-.4-.06-.4-.31v-.09h-3.84v.09c0,.42-.36.59-.9.59-.32,0-.38-.05-.38-.4l.07-2.33v-1.13a2.42,2.42,0,0,0-.09-.78l.08-.09a5.16,5.16,0,0,1,1.44.43h1V117.4a16.27,16.27,0,0,0-2,.1Zm.52-1.57a3,3,0,0,1,0,.54,1.19,1.19,0,0,1-.31.85c.59.06,1.23.07,2,.07H309c.62-.78.7-.87.78-.87a.26.26,0,0,1,.14.05c.06-.21.11-.42.15-.64Zm1.54,3.12h-1c0,.07-.11.12-.28.19v1.22h1.24Zm0,1.62h-1.24V122h1.24Zm1,2c2.37.08,3.41.89,3.41,1.67,0,.61-.32.79-.78.79s-.57-.24-.85-.72a4,4,0,0,0-1.82-1.62Zm1.57-2.24v-1.41H308.2v1.41ZM308.2,122h1.33v-1.56H308.2Z"/><path class="cls-1" d="M321.47,118a2.46,2.46,0,0,1,0,.28c1.15.34,1.37.44,1.37.62s-.16.22-.51.26a7,7,0,0,1-.84.81h2.13c.46-.58.57-.67.68-.67s.27.07.75.43.61.54.61.67-.11.23-.44.38v.89l.11,2.55c0,.46-.46.71-1.1.71-.41,0-.47,0-.47-.41v-.34h-4.31v.17c0,.42-.3.67-1.09.67-.34,0-.39,0-.39-.43l.1-3.06v-1a3.14,3.14,0,0,0-.13-1.11l.08-.09a4.86,4.86,0,0,1,1.66.61h1.09c.07-.33.14-.67.18-1a2.06,2.06,0,0,1-.95.19c-.16,0-.2,0-.26-.31s-.27-.55-1-.75v-.12a8.71,8.71,0,0,0,1.08-.05c.3,0,.34-.12.34-.5v-.48a26.16,26.16,0,0,1-2.83,1.53.89.89,0,0,1-.29.1.24.24,0,0,1-.2-.12,6.15,6.15,0,0,1-.5-1l.05-.11c.29,0,.54,0,.85-.09.92-.16,2-.41,2.92-.66v-1.86h-1.71a14.7,14.7,0,0,0-1.91.09l-.09-.4a16.85,16.85,0,0,0,2,.09H320c.41-.6.52-.7.61-.7s.26.06.74.44.52.45.52.59-.13.22-.41.35v.9Zm-4.2-3.09c1.19.07,2,.48,2,1.17a.67.67,0,0,1-.71.73c-.37,0-.49-.22-.55-.51-.12-.66-.31-1.08-.78-1.28Zm6.47,6.93v-1.65h-4c0,.07-.11.12-.27.17v1.48Zm-4.31,2.13h4.31V122h-4.31Zm5.7-7a19.47,19.47,0,0,1-2.42,1.37.79.79,0,0,1-.3.09.24.24,0,0,1-.2-.12,5.86,5.86,0,0,1-.49-1l0-.11c.29,0,.54,0,.85-.1a24.2,24.2,0,0,0,2.51-.55v-1.88H324a14.7,14.7,0,0,0-1.91.09l-.1-.4a17,17,0,0,0,2,.09h1c.43-.62.54-.7.63-.7s.26.06.75.44.53.45.53.59-.14.25-.43.38V116l.08,2c0,.82-.6,1.16-1.49,1.16-.19,0-.22,0-.27-.32s-.28-.54-1-.75V118c.4,0,.69,0,1,0s.33-.12.33-.51Zm-2.83-2c1.19.07,2,.45,2,1.14a.65.65,0,0,1-.71.73.52.52,0,0,1-.56-.51,1.5,1.5,0,0,0-.73-1.25Z"/><path class="cls-1" d="M336.52,113.73c1.52.18,1.94.3,2,.48,1.06,0,1.7.51,1.7,1.13a.65.65,0,0,1-.68.74c-.3,0-.54-.2-.58-.63a1.42,1.42,0,0,0-.5-1.08.9.9,0,0,1-.41.22c0,.64,0,1.24.06,1.8h1.71c.57-.79.79-1.06.9-1.06s.24.07.74.49.58.53.58.64-.06.14-.25.14h-3.67a15.88,15.88,0,0,0,.61,3.75,12,12,0,0,0,.77-2,3.23,3.23,0,0,0,.18-.86l.1,0c1.5.67,1.72.88,1.72,1.07s-.18.25-.59.26a12.44,12.44,0,0,1-1.59,2.93c.45.7,1.11,1.26,1.37,1.26a.39.39,0,0,0,.35-.19,12.11,12.11,0,0,0,1-1.55l.1.06a15.6,15.6,0,0,0-.35,1.65,1.1,1.1,0,0,0,.16.65,1.27,1.27,0,0,1,.19.64c0,.44-.3.69-.81.69a4.38,4.38,0,0,1-3-2.08,9,9,0,0,1-3.63,1.87l-.05-.1a9.92,9.92,0,0,0,3.15-2.74,12.28,12.28,0,0,1-.72-2.3,20.71,20.71,0,0,1-.39-3h-2.94a.61.61,0,0,1-.26.16v2h1.18c.49-.6.58-.69.71-.69s.31.07.72.45.52.54.52.67-.09.2-.43.36a23.33,23.33,0,0,1-.25,2.5,2.2,2.2,0,0,1-.83,1.54,1.6,1.6,0,0,1-1.14.3c-.21,0-.26,0-.3-.29a1.15,1.15,0,0,0-.79-1,5.7,5.7,0,0,1-1.81,2.3l-.09-.09c1-1.64,1.12-3.26,1.12-6.29v-1.24a3,3,0,0,0-.14-1.34l.08-.08c1.22.28,1.61.45,1.71.57h2.92c0-.49,0-1-.06-1.54a3.23,3.23,0,0,0-.15-1Zm-3.06,5.21a10.34,10.34,0,0,1-.54,3.45,8,8,0,0,0,.86,0,.67.67,0,0,0,.79-.61,18.5,18.5,0,0,0,.25-2.89Z"/><path class="cls-1" d="M352.9,118.39V120h2.58c.57-.79.79-1.07.9-1.07s.24.07.74.49.58.54.58.65-.06.14-.25.14h-4.29c1,1.44,3,2.15,4.82,2.35v.13a2.65,2.65,0,0,0-1.15,1.31c-.05.11-.11.22-.22.22a1.6,1.6,0,0,1-.39-.12,5.72,5.72,0,0,1-3.28-3.89h0l.1,4.14c0,.48-.38.61-1.12.61-.43,0-.5,0-.5-.43l.12-3a9.72,9.72,0,0,1-4.88,2.84l-.06-.11a9.56,9.56,0,0,0,3.93-4h-.72c-1.21,0-2.27,0-2.89.09l-.11-.4c.69.07,1.75.1,3,.1h1.69v-1.62h-1.72v.15c0,.4-.37.68-1,.68-.39,0-.46,0-.46-.41l.09-2.8v-1a2.92,2.92,0,0,0-.15-1.1l.09-.08a6.49,6.49,0,0,1,1.72.61h4.55c.43-.58.56-.7.65-.7s.26,0,.81.52.64.58.64.73-.09.21-.45.38v.9l.12,2c0,.65-.45.83-1.11.83-.4,0-.48,0-.48-.41v-.29Zm-2.83-3.72c0,.07-.13.13-.33.22v1.39h1.72v-1.61Zm1.39,1.83h-1.72v1.68h1.72Zm3.28-1.83h-1.41c0,.14-.15.24-.43.3v1.31h1.84Zm-1.84,1.83v1.68h1.84V116.5Z"/><path class="cls-1" d="M370,119c0,.18-.12.28-.33.35v1.49H371c.57-.78.79-1.06.9-1.06s.25.07.75.49.57.54.57.64-.06.15-.24.15h-3.3v2c0,.35,0,.41.72.41,1,0,1.28-.07,1.67-.47a4.86,4.86,0,0,0,.83-1.39l.12,0a12.38,12.38,0,0,0-.1,1.27.54.54,0,0,0,.16.46.72.72,0,0,1,.24.49.73.73,0,0,1-.43.69,6.4,6.4,0,0,1-2.65.28c-1.78,0-2-.23-2-1.32l0-2.45h-1.12a4.19,4.19,0,0,1-1.47,2.93A6,6,0,0,1,362.6,125l0-.12a4.68,4.68,0,0,0,2.37-1.55,4.29,4.29,0,0,0,.79-2.32c-1.19,0-2.24,0-2.84.09l-.11-.4c.67.07,1.73.09,3,.09,0-.14,0-.3,0-.45V119c-.33,0-.63,0-.86.06l-.06-.21a10.81,10.81,0,0,1-2.29,1l-.05-.11a8.12,8.12,0,0,0,2.29-2,.61.61,0,0,1-.24,0c-.34,0-.55-.18-.62-.62a1.65,1.65,0,0,0-.78-1.35l0-.09c1.24,0,2.1.5,2.1,1.27v.06a7.34,7.34,0,0,0,1-2.09h-1.17a15.87,15.87,0,0,0-1.78.1l-.11-.41a12.71,12.71,0,0,0,1.88.1h1.07c.49-.6.65-.73.76-.73s.25.07.79.56.57.55.57.69-.21.25-.59.31a7.05,7.05,0,0,1-2.57,3.06c.65.06,1.5.07,2.59.07h1.08c.54-.74.76-1,.86-1s.19,0,.66.43.58.5.58.61-.06.14-.25.14Zm-2.49,0c0,.21-.13.29-.34.35v1a2.74,2.74,0,0,1,0,.5h1.11V119Zm2.68-5.14c1.18.71,1.35.92,1.35,1.06s-.16.23-.56.21a10.12,10.12,0,0,1-1.4.69,6.2,6.2,0,0,0,1.06.91,7.27,7.27,0,0,0,.74-1.15,1.42,1.42,0,0,0,.17-.47l.12,0c1.26.74,1.41.93,1.41,1.09s-.15.26-.58.21a10,10,0,0,1-1.41.62,8.2,8.2,0,0,0,2.68.88V118a2.34,2.34,0,0,0-1.1,1.2c-.09.16-.14.23-.25.23a.94.94,0,0,1-.36-.1,7,7,0,0,1-3.8-5.48l.12,0a6.46,6.46,0,0,0,.9,1.64,9.39,9.39,0,0,0,.63-1.07,1.45,1.45,0,0,0,.16-.47Z"/><path class="cls-1" d="M386.78,118.87c.65-.86.77-1,.9-1s.3.1.75.46.56.48.56.59-.07.18-.25.18h-4.4a.28.28,0,0,1-.12.2,6.66,6.66,0,0,0,1.08,1.86,7.13,7.13,0,0,0,.92-1.25,1.42,1.42,0,0,0,.13-.38l.11,0c1.37.74,1.54,1,1.54,1.16s-.11.22-.71.2a14.59,14.59,0,0,1-1.66.69,6.82,6.82,0,0,0,3.52,1.85l0,.13a2.7,2.7,0,0,0-1.2,1.23c-.06.11-.08.17-.19.17a.86.86,0,0,1-.34-.1,5,5,0,0,1-2.08-1.71,36.34,36.34,0,0,1-5.14,1.89.79.79,0,0,1-.2,0c-.08,0-.16-.08-.21-.16-.26-.46-.47-.94-.65-1.34l.05-.1a8.42,8.42,0,0,0,1.2,0l.73-.07v-1.6a14.57,14.57,0,0,1-3.22,1.38l-.06-.1a11,11,0,0,0,4.16-3.89h-1.07c-1,0-2.28,0-2.89.09l-.11-.4c.69.07,2,.09,3,.09h1.78v-1.62h-.31c-1,0-2.16,0-2.9.09l-.1-.4c.8.07,2,.09,3,.09h.31v-1.35h-1.12c-1.21,0-2.27,0-2.89.1l-.1-.4c.68.07,1.74.09,3,.09h1.12v-.69a1.93,1.93,0,0,0-.15-1l.09-.08c1.71.21,2,.31,2,.5s-.1.25-.45.38v.87h2.05c.57-.79.8-1.06.9-1.06s.25.07.75.49.58.53.58.64-.06.14-.25.14h-4V117h1.32c.58-.77.79-1,.88-1s.27.09.65.4.59.54.59.65-.07.13-.28.13h-3.16v1.62Zm-4.31,4.27c.88-.1,1.75-.24,2.62-.39a8.39,8.39,0,0,1-1.08-3.39l-.23,0a13.36,13.36,0,0,1-1.35,1.36c.37.1.44.19.44.27s-.09.2-.4.3Z"/><path class="cls-1" d="M11.65,101.7c0,.79-.7,1.08-1.77,1.08-.55,0-.64,0-.64-.63l.17-4.24A13.75,13.75,0,0,1,2.09,102l0-.16a14.32,14.32,0,0,0,6.37-6.3H6.73c0,.87-.57,1.08-1.48,1.08-.59,0-.68,0-.68-.65l.13-3.61V91.1a3.05,3.05,0,0,0-.22-1.39l.13-.13a9.65,9.65,0,0,1,2.48.78H9.34V88.63H6.65c-1.85,0-3.45,0-4.38.14l-.16-.61c1,.11,2.64.14,4.54.14H9.34v-.7a3.17,3.17,0,0,0-.25-1.66l.13-.13c2.57.38,2.84.6,2.84.81s-.09.29-.63.47V88.3H15.6c.85-1.19,1.19-1.6,1.35-1.6s.38.1,1.13.74.88.81.88,1-.09.22-.38.22H11.43v1.73H14c.72-.78.95-1,1.11-1s.41.09,1.11.65,1,.81,1,1-.13.34-.68.56v.92l.16,2.71c0,.88-.54,1.23-1.66,1.23-.59,0-.7-.06-.7-.64v-.23H11.81a4.77,4.77,0,0,0,.82,1.19,8.07,8.07,0,0,0,2.43,1.7,15.67,15.67,0,0,0,4.08,1.19v.22a3.8,3.8,0,0,0-1.81,1.76c-.2.37-.23.42-.39.42a1,1,0,0,1-.61-.16,8.93,8.93,0,0,1-4.81-6.32h-.1Zm-2.31-9v-2H7.16a.92.92,0,0,1-.43.28v1.75Zm0,.33H6.73v2.18H9.34Zm4.95-.33v-2H11.43v2Zm0,2.51V93.05H11.43v2.18Z"/><path class="cls-1" d="M25.07,96.61c2,.72,2.48,1.08,2.48,1.37s-.21.4-.91.45A12.9,12.9,0,0,1,20.89,102l-.09-.16a14,14,0,0,0,3.71-4.06,2.74,2.74,0,0,0,.42-1.07ZM28,87.35a3.15,3.15,0,0,0-.21-1.47l.12-.12c2.41.3,3,.47,3,.81s-.12.32-.71.49v1.55H34c.86-1.19,1.2-1.61,1.36-1.61s.37.11,1.12.74.88.81.88,1-.09.21-.38.21H25.55c-1.84,0-3.45,0-4.38.15L21,88.46c1,.11,2.65.15,4.54.15H28Zm2.93,7.83c0,.2-.16.34-.55.45v2.06l.14,3.16c0,1.1-1.5,1.91-2.75,1.91-.43,0-.52-.07-.57-.47-.11-.74-.41-1.17-1.9-1.6v-.2a17.45,17.45,0,0,0,2,0c.66,0,.86-.22.86-.85V95.18H26v.22c0,.7-.73,1-1.59,1-.58,0-.71-.19-.71-.74l.14-3.19V91.7a3.71,3.71,0,0,0-.18-1.5l.13-.13a6.78,6.78,0,0,1,2.59,1H32.2c.68-.89.91-1.1,1.07-1.1s.54.14,1.25.68.91.87.91,1.07-.16.32-.68.54v.81l.16,2.09c0,.67-.55,1.07-1.66,1.07-.71,0-.78-.09-.78-.63v-.4Zm1.56-.33V91.37h-6a.84.84,0,0,1-.42.25v3.23ZM31.3,97c2.88.18,5.15,1.41,5.15,3.25a1.24,1.24,0,0,1-1.3,1.36c-.58,0-.86-.33-1.13-1a5.75,5.75,0,0,0-2.79-3.46Z"/><path class="cls-1" d="M46,91.25c.72-.74.88-.91,1-.91s.27.06.61.33c.55.45.62.52.62.65s-.1.25-.41.25H46.46c0,.14-.11.2-.36.27v.47c0,.18,0,.18.41.18s.64,0,.77-.14.16-.18.32-.65h.21v.22c0,.29.08.33.27.43a.63.63,0,0,1,.36.56c0,.33-.16.51-.59.64a4.28,4.28,0,0,1-1,.12l.18.13c.62.49.66.56.66.68s-.11.26-.41.26H44.63v.76c1-.11,2.06-.26,3.18-.44l0,.16a35.86,35.86,0,0,1-4.75,1.85c.93,0,2,0,3,0h4.15c.84-1.07,1-1.19,1.14-1.19s.25,0,.79.47c.71.58.76.7.76.86s-.1.18-.39.18H46.08c-1.55,0-3.45,0-4.38.15v-.11a4.14,4.14,0,0,1-.43.13,1.75,1.75,0,0,1-.36.07c-.13,0-.23-.06-.32-.24a14.68,14.68,0,0,1-.7-1.48l.09-.16a8.92,8.92,0,0,0,1.45,0c.39,0,.86-.05,1.39-.1v-.94a19.19,19.19,0,0,0-2.27.14l-.12-.5c-.31.1-.65.21-1,.3l-.07-.14a6.12,6.12,0,0,0,2-2.26,2.23,2.23,0,0,0,.28-.72c-.84,0-1.46.07-2.18.14l-.16-.61a29.89,29.89,0,0,0,3.36.15h.13v-.94a22.08,22.08,0,0,0-2.45.14l-.16-.61c.87.09,1.59.12,2.61.14a3.15,3.15,0,0,0-.22-1.23l.13-.12c.59.07,1,.12,1.39.18v-.18l.07-.91h-.28c-1.84,0-3.49,0-4.42.15l-.16-.61c1,.1,2.68.14,4.58.14h.3V87a2.45,2.45,0,0,0-.2-1.15l.13-.13c2.09.18,2.5.38,2.5.65s-.16.31-.55.43v.58H48.8V87a2.63,2.63,0,0,0-.2-1.16l.13-.12c2.09.18,2.55.38,2.55.65s-.16.3-.55.43v.56h1.73c1-1.21,1.27-1.5,1.43-1.5s.41.13,1.11.71.87.74.87.9-.09.21-.37.21H50.74l.06.62a.7.7,0,0,1-.27.58c1.36.16,1.61.29,1.61.48s-.14.33-.63.47a7,7,0,0,1,0,.8h.71c.54-.71.72-.83.84-.83s.34.07.86.54.75.74.75.94-.14.3-.57.48a11.12,11.12,0,0,0,0,1.14,3.9,3.9,0,0,0,.34,1.59c.13.23.29.42.41.42s.2-.08.27-.22a15.62,15.62,0,0,0,.7-1.63l.18.06c-.16,1-.27,1.69-.27,2a1.21,1.21,0,0,0,.12.67,1.45,1.45,0,0,1,.18.72c0,.36-.39.64-.87.64-1,0-1.81-.74-2.34-2a8,8,0,0,1-.43-2.57c0-.54,0-1.1,0-1.64h-.9a10.13,10.13,0,0,1-.34,1.81,1.71,1.71,0,0,1,1,1.41c0,.54-.27.92-.77.92s-.68-.22-.91-.78c-.82,1.35-2.18,2.24-4.52,2.67l-.09-.14a6.06,6.06,0,0,0,3.54-4,6.52,6.52,0,0,0-1.25-.85l.07-.17a8.59,8.59,0,0,1,1.36.24c.05-.38.07-.74.09-1.12-.38,0-.77.07-1.31.13l-.16-.62c.61.07,1.06.11,1.49.13v-.51a3.33,3.33,0,0,0-.11-.93h-.31c-.44,0-.53-.08-.53-.58l.07-.91H46.05l.05.62c0,.47-.32.74-.93.83.09.29-.21.38-.59.49V90h.89c.74-.79.88-1,1-1s.32.12.63.38c.57.48.6.54.6.66s-.1.26-.41.26H44.58v.94ZM47.44,99c0,.28-.22.37-.59.42a13.06,13.06,0,0,1-1.27,1.12c1.79,0,3.57-.09,5.34-.18a4.09,4.09,0,0,0-1.41-.94l.06-.16c2.73,0,4.64,1,4.64,2.27a1.11,1.11,0,0,1-1.12,1.18c-.63,0-.88-.18-1.27-1a7.23,7.23,0,0,0-.41-.74c-2.9.64-5.6,1.12-9.4,1.66a2.48,2.48,0,0,1-.41,0c-.18,0-.25-.07-.34-.29a11.88,11.88,0,0,1-.56-1.79l.11-.1c.64.05,1.32.1,2,.1H44A14.35,14.35,0,0,0,44.42,99H44c-1.84,0-3.44,0-4.37.15l-.16-.61c1,.1,2.64.14,4.53.14h8.55c.82-1.14,1.09-1.43,1.25-1.43s.37.11,1,.64.88.74.88.9-.09.21-.38.21Zm-5-7.45c.93.34,1.23.51,1.23.7s-.19.29-.59.31a6.92,6.92,0,0,1-2.41,1.72c.73.07,1.45.1,2.18.12a3.93,3.93,0,0,0-.14-1.28l.12-.13c.93.11,1.5.2,1.84.27a2.21,2.21,0,0,1-.07-.65l0-1.06Zm3,2.85c.29-.36.48-.59.63-.74a5.2,5.2,0,0,1-.88-.05c0,.2-.16.25-.54.36v.43Z"/><path class="cls-1" d="M60.57,85.65c2.4.81,2.63,1,2.63,1.24s-.2.29-.73.33a15,15,0,0,1-4.68,3.61l-.13-.14a18,18,0,0,0,2.41-3.92,3.1,3.1,0,0,0,.34-1Zm-.07,4a13.27,13.27,0,0,1,2.32.9c.79,0,1.56.07,2.33.09V87.51a4.06,4.06,0,0,0-.22-1.63l.13-.14c2.57.32,2.77.5,2.77.81a.22.22,0,0,1,0,.11A2.38,2.38,0,0,1,69.7,88c.7.07,1.2.11,1.66.11h.2c.82-1.18,1.06-1.39,1.2-1.39s.36.09,1,.63.72.74.72.9-.11.18-.32.18H71.36a14,14,0,0,0-1.6.09.86.86,0,0,1-.88.78.71.71,0,0,1-.77-.73,3.11,3.11,0,0,0-.48-1.69,2.1,2.1,0,0,1-.52.25v3.54h.47c.89-1.16,1-1.28,1.16-1.28s.36.11,1,.56.75.63.75.77S70.33,91,70,91H67.11v3l.16,7.65c0,.89-.53,1.14-1.61,1.14-.58,0-.66,0-.66-.68L65.15,94V91c-.75,0-1.49,0-2.24.11a1.69,1.69,0,0,1-.59.15c-.41.72-.84,1.4-1.28,2,.77.14,1,.27,1,.47s-.13.3-.66.48v7.62c0,.72-.52.92-1.41.92-.54,0-.66-.05-.66-.65l.14-5.32V95.2a13.27,13.27,0,0,1-1.64,1.42l-.13-.14A18.8,18.8,0,0,0,60.11,91a3.06,3.06,0,0,0,.23-1.21Zm2.16,3.12c2,.4,2.29.49,2.29.78,0,.12-.07.23-.5.41-.27,3.85-1.23,5.34-2.64,7.13L61.7,101a19.21,19.21,0,0,0,1-6.89,2.86,2.86,0,0,0-.14-1.21Zm4.88.32a5.55,5.55,0,0,1,2.61,4.43A1.12,1.12,0,0,1,69,98.75c-.59,0-.87-.29-.86-1.15a7.8,7.8,0,0,0-.75-4.37ZM71,92.38a20.25,20.25,0,0,0-2.32.13l-.14-.62a17.43,17.43,0,0,0,2.5.17h.75c.87-1.25,1-1.45,1.23-1.45s.36.09,1.06.69.71.7.71.87-.11.21-.32.21h-1c0,.27-.17.4-.45.49v2.92l.18,5a2.14,2.14,0,0,1-2.27,1.93c-.61,0-.64-.07-.72-.47-.1-.56-.46-1.15-1.66-1.46v-.2a11,11,0,0,0,1.86-.1c.39-.08.57-.17.57-.8Z"/><path class="cls-1" d="M85.73,91.75c1.13,4.42,3.63,6.77,7.65,8.3v.22a3.86,3.86,0,0,0-1.93,1.66c-.23.38-.36.43-.48.43a.87.87,0,0,1-.56-.21c-3.23-2.31-4.71-5.54-5-10.4h-.13a13,13,0,0,1-2.14,6.79,10.12,10.12,0,0,1-6.66,4l0-.19a10.17,10.17,0,0,0,5.22-5.07,15.11,15.11,0,0,0,1.28-5.54H81.07c-1.56,0-3,0-4.33.14l-.16-.61c1.4.11,2.93.14,4.49.14H83c.09-1.1.13-2.31.13-3.68,0-1.1,0-1.35-.25-1.75l.1-.14c3,.36,3.31.59,3.31,1,0,.18-.14.31-.73.51-.06,1.59-.11,2.94-.22,4.09h4c1.18-1.55,1.45-1.82,1.61-1.82s.37.09,1.2.76,1,.92,1,1.1-.1.29-.44.29Z"/><path class="cls-1" d="M102.33,94.48c.86.1,1.5.21,2,.3a11.6,11.6,0,0,0,1.44-2.07h-3.91c-1.34,0-2.48.05-3.89.14l-.16-.61c1.68.12,2.68.14,4,.14h3.92c.6-.79.87-1,1-1s.5.12,1.25.7,1,.81,1,1.06-.16.38-1.12.47A17.31,17.31,0,0,1,105.1,95c.13,0,.18.12.18.2,0,.23-.12.37-.71.57v1h3.93c.85-1.19,1.19-1.6,1.35-1.6s.38.11,1.13.74.88.81.88,1-.09.22-.38.22h-6.91v.52l.17,3.25c0,1.1-1.37,1.92-2.71,1.92-.34,0-.43,0-.48-.35-.15-.85-.4-1.3-1.88-1.73v-.2a14.11,14.11,0,0,0,2,0c.62-.08.8-.22.8-.85V97.13H99.54c-1.84,0-3.44,0-4.37.14L95,96.66c1,.11,2.64.14,4.53.14h2.88v-.43a4.09,4.09,0,0,0-.21-1.77Zm-4.5-4.64a3.88,3.88,0,0,1,0,.57c0,1.67-.73,2.42-1.71,2.42a1,1,0,0,1-1.07-1.06,1.23,1.23,0,0,1,.78-1.23A2,2,0,0,0,97,88.41l.16,0a2.91,2.91,0,0,1,.63,1.13h1.7a1,1,0,0,1-.49-.76c-.23-1.55-.53-2-1.25-2.45l.06-.15c2.21.19,3.48,1.09,3.48,2.26a1.22,1.22,0,0,1-.57,1.1h2.45c-.4-.12-.59-.43-.63-1-.12-1.56-.43-2-1.1-2.55l.07-.12c2.19.3,3.34,1.11,3.34,2.29a1.27,1.27,0,0,1-.88,1.35h1.63a22.45,22.45,0,0,0,.73-2.38,4,4,0,0,0,.18-1.19l.14-.11c2,.72,2.79,1,2.79,1.32s-.13.39-.75.45a24.52,24.52,0,0,1-2.18,1.91h2c.8-.9,1-1,1.13-1s.41.18,1.12.85,1,1,1,1.23c0,.41-.18.5-1.38.5a19.32,19.32,0,0,1-2.16.89l-.13-.13a12.31,12.31,0,0,0,.68-2Z"/><path class="cls-1" d="M122.61,91.75c1.13,4.42,3.63,6.77,7.65,8.3v.22a3.86,3.86,0,0,0-1.93,1.66c-.23.38-.36.43-.48.43a.87.87,0,0,1-.56-.21c-3.23-2.31-4.71-5.54-5-10.4h-.12A13.1,13.1,0,0,1,120,98.54a10.09,10.09,0,0,1-6.66,4l0-.19a10.13,10.13,0,0,0,5.22-5.07,15.11,15.11,0,0,0,1.28-5.54H118c-1.56,0-3,0-4.33.14l-.16-.61c1.4.11,2.93.14,4.49.14h1.89c.09-1.1.13-2.31.13-3.68,0-1.1,0-1.35-.25-1.75l.1-.14c3,.36,3.31.59,3.31,1,0,.18-.14.31-.73.51-.06,1.59-.11,2.94-.22,4.09h3.95c1.18-1.55,1.45-1.82,1.61-1.82s.38.09,1.2.76,1,.92,1,1.1-.1.29-.44.29Z"/><path class="cls-1" d="M139.78,94.48c.86.1,1.51.21,2,.3a12.3,12.3,0,0,0,1.45-2.07h-3.92c-1.34,0-2.48.05-3.89.14l-.16-.61c1.68.12,2.68.14,4,.14h3.91c.61-.79.87-1,1-1s.5.12,1.25.7,1,.81,1,1.06-.16.38-1.13.47A16.88,16.88,0,0,1,142.55,95c.13,0,.18.12.18.2,0,.23-.12.37-.71.57v1H146c.86-1.19,1.2-1.6,1.36-1.6s.37.11,1.12.74.88.81.88,1-.09.22-.38.22H142v.52l.18,3.25c0,1.1-1.38,1.92-2.72,1.92-.34,0-.43,0-.48-.35-.14-.85-.39-1.3-1.88-1.73v-.2a14.11,14.11,0,0,0,1.95,0c.63-.08.8-.22.8-.85V97.13H137c-1.84,0-3.45,0-4.38.14l-.16-.61c1,.11,2.64.14,4.54.14h2.87v-.43a4.09,4.09,0,0,0-.21-1.77Zm-4.5-4.64a2.91,2.91,0,0,1,.06.57c0,1.67-.74,2.42-1.72,2.42a1,1,0,0,1-1.07-1.06,1.23,1.23,0,0,1,.78-1.23,2.06,2.06,0,0,0,1.08-2.13l.16,0a2.88,2.88,0,0,1,.62,1.13h1.7a1,1,0,0,1-.48-.76c-.23-1.55-.54-2-1.25-2.45l.05-.15c2.22.19,3.48,1.09,3.48,2.26a1.22,1.22,0,0,1-.57,1.1h2.45c-.39-.12-.59-.43-.62-1-.13-1.56-.43-2-1.11-2.55l.07-.12c2.2.3,3.34,1.11,3.34,2.29a1.26,1.26,0,0,1-.88,1.35H143a22.45,22.45,0,0,0,.73-2.38,4,4,0,0,0,.18-1.19l.14-.11c2,.72,2.79,1,2.79,1.32s-.12.39-.75.45a24.52,24.52,0,0,1-2.18,1.91h2c.81-.9,1-1,1.13-1s.41.18,1.12.85,1,1,1,1.23c0,.41-.18.5-1.38.5a19.32,19.32,0,0,1-2.16.89l-.12-.13a13.37,13.37,0,0,0,.68-2Z"/><path class="cls-1" d="M155,86.82c.77-.92.93-1,1.07-1s.4.14,1.06.74.85.83.85,1-.23.4-.82.58A19.31,19.31,0,0,1,155.24,91c-.09.1-.11.14-.11.23a.27.27,0,0,0,.13.18,4.13,4.13,0,0,1,2.2,3.77,3.41,3.41,0,0,1-.72,2.3,2.37,2.37,0,0,1-1.68.74c-.3,0-.37-.06-.44-.42-.11-.59-.22-.92-.59-1.15v5.16c0,.61-.47,1-1.4,1-.59,0-.64-.07-.64-.62l.12-10V87.69A4.41,4.41,0,0,0,151.9,86l.12-.13a8.15,8.15,0,0,1,2.43.92Zm-.48.33c-.06.11-.18.21-.48.32v8.72l.69-.09c.72-.14.91-.69.91-1.86a3.86,3.86,0,0,0-.91-2.74.67.67,0,0,1-.14-.38,2.11,2.11,0,0,1,.09-.49,31.07,31.07,0,0,0,.55-3.48Zm7.27,7.8c0,.28-.2.41-.54.46a7.44,7.44,0,0,1-2,5.4,8.22,8.22,0,0,1-4.83,1.86l0-.18a6.39,6.39,0,0,0,3.55-2.58A8.87,8.87,0,0,0,159.12,95c-.5,0-1,.06-1.41.11l-.16-.61c1.12.1,2.25.14,3.57.14H165c1-1.34,1.2-1.57,1.36-1.57s.45.16,1.09.7.84.74.84.92-.1.28-.41.28h-3c0,.25-.17.39-.49.46v4.37c0,.45.07.53.74.53.89,0,1.14-.09,1.55-.6a8.23,8.23,0,0,0,1-2l.18,0c-.07.85-.11,1.3-.11,1.56a1.17,1.17,0,0,0,.25.79,1.19,1.19,0,0,1,.34.83,1.11,1.11,0,0,1-.66,1,6,6,0,0,1-2.79.42c-2.3,0-2.66-.2-2.66-2l.09-3.27V95Zm3.72-6.34c.57-.74.77-.9.91-.9s.41.11,1.2.83c.64.63.78.81.78,1.08s-.23.38-1.27.43a10.11,10.11,0,0,1-1.28.8A.87.87,0,0,0,166,91c.71.58.84.73.84.87s-.11.27-.41.27h-4.56a28.78,28.78,0,0,0-3.27.15l-.16-.62a33.47,33.47,0,0,0,3.43.15h1.91c.92-1.25,1.11-1.43,1.27-1.43a.68.68,0,0,1,.22,0,10.46,10.46,0,0,0,.35-1.48H159a5.5,5.5,0,0,1,.09,1,1.7,1.7,0,0,1-1.54,1.86.91.91,0,0,1-1-1,1.26,1.26,0,0,1,.6-1,2.08,2.08,0,0,0,1.17-2.09l.16,0a3.14,3.14,0,0,1,.46,1h2.18V87a2.62,2.62,0,0,0-.21-1.15l.12-.13c2.43.33,2.91.49,2.91.78s-.16.34-.67.52v1.61Z"/><path class="cls-1" d="M176.67,95.65l.1,3.32c0,.81-.27,1.17-1.43,1.17-.55,0-.62-.07-.62-.52V98.7h-1.5v1.59c0,.58-.47.9-1.4.9-.5,0-.57-.07-.57-.61l.13-5.2v-6.9a4.54,4.54,0,0,0-.16-1.5l.1-.12a9.75,9.75,0,0,1,2.2.86h1c.64-.9.8-1,1-1s.37.09.91.63c.68.7.79.9.79,1.12s-.11.25-.59.47V95l0,.28h1V89.93a4.26,4.26,0,0,0-.12-1.27l.12-.12a8.06,8.06,0,0,1,2.2.88h.84v-.36a11.37,11.37,0,0,0-.16-3.14l.14-.13c2,.27,2.72.45,2.72.8s-.15.34-.7.5c0,.85,0,1.63,0,2.33h.88c.7-.83.86-1,1-1s.38.07,1,.61,1,.83,1,1-.17.32-.69.58v4.65c.6-1.3.78-1.48.93-1.48s.26.08.64.58c.5.67.57.85.57,1s-.14.24-.41.24h-4.86c.72,2,2.13,3.59,5.4,4.93l-.06.23a3.8,3.8,0,0,0-1.68,1.48c-.14.26-.25.34-.37.34a.81.81,0,0,1-.54-.25c-1.91-1.59-2.87-3.54-3.09-6.73h0c0,.18-.08.38-.11.56-.66,3.39-3.22,5.79-7.81,6.59l-.11-.17c3.43-1.29,5.51-3.59,6.08-7ZM174.72,93V88.05h-1.09c0,.11-.16.18-.41.27V93Zm-1.5,5.4h1.5V93.3h-1.5Zm7.25-3.06a24.25,24.25,0,0,0,.22-2.58c.05-1,.05-2,.05-3H180a.83.83,0,0,1-.39.21v5.36Zm3.31,0V89.75h-1.06c0,1.22,0,2.43-.1,3.64,0,.65-.11,1.3-.2,1.93Z"/><path class="cls-1" d="M197.23,92.63v.08c0,.65-.37.86-1.28.86-.52,0-.61,0-.61-.56l.11-1.71v-.85l-1.45.89v0c0,.2-.13.31-.66.49v10c0,.72-.59.92-1.52.92-.56,0-.61,0-.61-.65l.16-5.92V93.83a21.68,21.68,0,0,1-1.55,1.64l-.15-.13a24.3,24.3,0,0,0,2.92-8.57,4.93,4.93,0,0,0,0-.56,1.62,1.62,0,0,0,0-.4l.14-.11c2.45.56,2.84.74,2.84,1s-.11.34-.73.47A19.86,19.86,0,0,1,193.3,91a1.88,1.88,0,0,1,.59.21,15.71,15.71,0,0,0,2.63-4.33,3.13,3.13,0,0,0,.28-1l.2-.11c2.13.76,2.41,1,2.41,1.28s-.18.33-.73.37c-.05.09-.13.16-.18.25h2c.66-.8.81-.9.91-.9s.32.07,1.09.74.75.7.75,1-.19.35-.8.4c-.48.31-.95.6-1.45.87h2.36c.72-.83.93-1,1.06-1s.37.09,1,.63.86.76.86,1-.18.34-.7.59v.56l.11,1.05c0,.7-.48.9-1.38.9h-.09c1.58,1.14,1.86,1.43,1.86,1.7s-.07.36-.43.36a3.06,3.06,0,0,1-.6-.07c-.74.38-1.49.72-2.22,1a10.29,10.29,0,0,0,4,3.17v.2a3.37,3.37,0,0,0-1.51,1.52c-.15.27-.25.4-.41.4s-.2,0-.47-.27c-2.18-1.9-3.3-5.13-3.47-8.31a.66.66,0,0,1-.25.07,12.06,12.06,0,0,1-1.41,1A5.64,5.64,0,0,1,202,99.12a4.33,4.33,0,0,1-.64,2.72,2.93,2.93,0,0,1-2.13.92c-.45,0-.5,0-.55-.38-.09-.67-.38-1.12-1.4-1.44v-.2a11.27,11.27,0,0,0,2,0c.56-.08.81-.44.83-1.61a18.25,18.25,0,0,1-6.38,2l0-.17a16.32,16.32,0,0,0,6.27-4c0-.08,0-.17,0-.24a16.58,16.58,0,0,1-6.11,1.9l0-.16a16.76,16.76,0,0,0,5.49-3.53c-.09-.12-.18-.27-.29-.39a13.74,13.74,0,0,1-5.23,1.8l-.08-.16a12.87,12.87,0,0,0,4.81-3.47Zm1-4.71a10,10,0,0,1-1.46,1.52c.25.07.5.13.73.22h2.27a10.28,10.28,0,0,0,.89-1.74ZM199.39,90h-1.76a.81.81,0,0,1-.4.22v2.11h2.16Zm4.26,2.33V90h-1.92c0,.24-.16.29-.42.36v2Zm-2.24.32a.61.61,0,0,1-.09.28,9,9,0,0,0,1.17,2.92,15.09,15.09,0,0,0,1.25-1.77,2.07,2.07,0,0,0,.3-.67c-.32,0-.39-.16-.39-.61v-.15Z"/><path class="cls-1" d="M213,102.6a7.61,7.61,0,0,0,3.6-5.16,25.31,25.31,0,0,0,.34-4.5c-.54,0-1.06,0-1.59.06,0,.16-.22.27-.54.45v2.33l.09,3.39c0,.85-.61,1-1.4,1-.51,0-.58-.08-.58-.51v-.59h-1.27v1.15c0,.85-.4,1-1.38,1-.48,0-.57-.07-.57-.52l.18-5.45a14.68,14.68,0,0,1-1.79,1.91l-.14-.11a19.85,19.85,0,0,0,2.82-9.22c-1,0-1.66.07-2.29.14l-.16-.61a31.53,31.53,0,0,0,3.72.14h1c.86-1.22,1.16-1.46,1.29-1.46s.36.11.93.61l.44.4c1,.09,2.17.11,3.31.11h2.54c.91-1.32,1.09-1.54,1.25-1.54s.39.11,1,.64.86.76.86,1-.11.27-.41.27h-1.3c0,.24-.18.37-.5.44v4.64h.1c.77-1.36,1-1.61,1.13-1.61s.37.13.84.63c.62.71.71.9.71,1.07s-.09.23-.35.23h-2.43v1.37l.19,7.53c0,.79-.62.94-1.68.94-.57,0-.68-.07-.68-.56l.09-7.87V92.94h-1.41a17.36,17.36,0,0,1-.61,4.93c-.59,1.93-2.14,3.83-5.25,4.89Zm3.94-15-.88,0c0,.2-.09.26-.36.26h-2.36c0,.3-.16.36-.44.43a20.17,20.17,0,0,1-1.25,4,1.51,1.51,0,0,1,.35.2h.75c.59-.72.72-.85.9-.85a2.06,2.06,0,0,1,1,.54,3.89,3.89,0,0,1,.44.38c.61,0,1.22,0,1.85.06Zm-4,11.21v-6h-.95a1.87,1.87,0,0,1-.32.16v5.81Zm6.55-11.25A.54.54,0,0,1,219,88v4.64h1.39V87.54Z"/><path class="cls-1" d="M229.5,88.74a3.77,3.77,0,0,1,.07.83c0,1.42-.75,2.2-1.73,2.2a1.06,1.06,0,0,1-1.09-1.14,1.2,1.2,0,0,1,.81-1.15,2.1,2.1,0,0,0,1.07-2.15l.16,0a2.89,2.89,0,0,1,.62,1.12h4.36v-1a3.19,3.19,0,0,0-.21-1.44l.12-.13c2.49.33,2.93.51,2.93.82s-.16.32-.67.5v1.3h4c.74-.9,1-1.14,1.13-1.14s.41.18,1.12.85,1,1,1,1.23-.21.4-1.34.4a20.76,20.76,0,0,1-2,1l-.13-.12a13.35,13.35,0,0,0,.54-1.93h-2.14c0,.28-.18.43-.52.5v1.68c0,.58,0,.63,1.16.63,1.57,0,2-.13,2.38-.41a3.93,3.93,0,0,0,1.07-1.25l.18,0a6.27,6.27,0,0,0-.06,1,.77.77,0,0,0,.25.58.91.91,0,0,1,.29.72c0,.51-.22.65-.59.89s-1.2.38-3.66.38c-2.88,0-3.17-.24-3.17-2l.09-1.75v-1h-3c1.57.43,2,.63,2,.93s-.13.31-.68.4c-1.45,3.18-3.75,4.44-7.18,5l0-.18a7.8,7.8,0,0,0,4.92-5.2,2.83,2.83,0,0,0,.14-.9Zm2.9,7a10.65,10.65,0,0,0,.1-1.16,4.41,4.41,0,0,0-.07-1.64l.13-.13c2.43.38,2.95.56,2.95.85s-.18.36-.72.52a12.27,12.27,0,0,1-.16,1.56h2c.7-.82.9-1,1.09-1s.42.15,1.11.71.9.77.9,1-.18.34-.72.58l-.14,2.72c0,.55.25.6.87.6,1.2,0,1.47-.16,1.84-.56a6.82,6.82,0,0,0,1.15-2l.18,0a15.26,15.26,0,0,0-.18,1.77,1.07,1.07,0,0,0,.28.74,1.11,1.11,0,0,1,.32.76,1.15,1.15,0,0,1-1,1.1,10,10,0,0,1-3.06.25c-2.53,0-2.85-.48-2.76-1.78l.23-3.25.05-1.32H234.6A7.62,7.62,0,0,1,232,101a9.32,9.32,0,0,1-5.2,1.81l0-.18a8,8,0,0,0,4.08-2.66,8.33,8.33,0,0,0,1.53-3.86h-.6a41.16,41.16,0,0,0-4.13.15l-.16-.62c1.18.11,2.48.15,4.29.15Z"/><path class="cls-1" d="M248,88.61c-.94.14-1.94.27-2.91.34l-.09-.23a16.29,16.29,0,0,0,4.68-2.24,1.73,1.73,0,0,0,.49-.56l.19,0c1.58,1.18,1.9,1.43,1.9,1.72s-.2.3-1,.25c-.34.11-.7.2-1.09.31.34.16.39.25.39.36s-.09.25-.73.41v2.6h.56c.8-1.17.92-1.35,1.05-1.35s.27.11.73.58.66.66.66.83-.1.27-.41.27h-2.59v1.6c1.75.26,2.82,1.14,2.82,2.28a1.06,1.06,0,0,1-1.16,1.15c-.46,0-.73-.25-.8-1a3.17,3.17,0,0,0-.86-2v2.87l.07,5.09c0,.8-.69,1-1.57,1-.63,0-.66-.07-.66-.65L248,96a17,17,0,0,1-3.38,3.48l-.14-.13a21.36,21.36,0,0,0,3.25-7.43h0A24.19,24.19,0,0,0,245,92l-.16-.61a28,28,0,0,0,2.86.14H248Zm6.21,9.08a27.35,27.35,0,0,0-2.83.69l-.27-.58a30.11,30.11,0,0,0,3-.44l2.68-.54.06-2.52V87.18c0-.79,0-1.12-.2-1.35l.12-.13c2.29.29,2.95.47,2.95.76s-.12.4-.71.56v7.31l0,2.06.07,0c.54-1.62.68-2,.84-2s.43.09,1.11.81c.45.49.57.63.57.77s-.05.24-.35.29l-2.22.45.09,5.13c0,.71-.71.94-1.88.94-.5,0-.57,0-.57-.63l.09-5Zm-1.36-5.58c2.19.06,3.43.78,3.43,2.11a1.11,1.11,0,0,1-1.16,1.25c-.59,0-.88-.4-1-1a3,3,0,0,0-1.34-2.21Zm.1-4.64c2.18.06,3.45.69,3.45,2.08a1.07,1.07,0,0,1-2.14.2,2.94,2.94,0,0,0-1.36-2.12Z"/><path class="cls-1" d="M272.4,91a5.32,5.32,0,0,0,.39-1.36.44.44,0,0,0-.23-.39,3.48,3.48,0,0,0-.48-.35.17.17,0,0,1-.11-.12.18.18,0,0,1,.11-.15,2.06,2.06,0,0,1,.95-.27,3.07,3.07,0,0,1,1.37.69c.55.43.89.83.89,1.26,0,.27-.1.38-.32.58a1.86,1.86,0,0,0-.48.74c-.41.81-.84,1.62-1.32,2.42,1.27.88,2.18,2,2.18,2.92a1.26,1.26,0,0,1-1.2,1.37c-.64,0-.91-.47-1.36-1.46a3.21,3.21,0,0,0-.77-1.08,12.76,12.76,0,0,1-2.14,2.34,13.62,13.62,0,0,1-6.25,3.11,1.29,1.29,0,0,1-.25,0,.12.12,0,0,1-.13-.11c0-.06,0-.09.09-.13a20.17,20.17,0,0,0,5.38-4.1,16.61,16.61,0,0,0,2-2.47,13.7,13.7,0,0,0-2.75-2,.2.2,0,0,1-.09-.14.14.14,0,0,1,.15-.13,11.84,11.84,0,0,1,3.48.85A19.22,19.22,0,0,0,272.4,91Z"/><path class="cls-1" d="M286,93.59c.36.33.62.6.62,1a1.47,1.47,0,0,1-.21.62c-.11.21-.29.54-.38.77a11.08,11.08,0,0,1-3,4,10,10,0,0,1-4,2,1.15,1.15,0,0,1-.28.06.16.16,0,0,1-.16-.15.17.17,0,0,1,.12-.16A10.32,10.32,0,0,0,281.82,99a12.08,12.08,0,0,0,2.07-3.57,4.36,4.36,0,0,0,.27-1.18,1,1,0,0,0-.15-.65.67.67,0,0,0-.14-.16c-.48.11-1,.24-1.41.36a4.37,4.37,0,0,0-1.14.47,1.37,1.37,0,0,1-.84.33,2.25,2.25,0,0,1-1.27-.65c-.47-.4-.82-.83-.82-1.14,0-.11,0-.27,0-.42a.17.17,0,0,1,.17-.16.29.29,0,0,1,.17.07,2.74,2.74,0,0,0,.7.36,1.66,1.66,0,0,0,.79.19,7.85,7.85,0,0,0,1.3-.19l3.22-.61c.89-.16,1.75-.31,2.64-.45.47-.09.54-.11.77-.31a.84.84,0,0,1,.64-.2,5,5,0,0,1,1.58.42c.51.23.8.49.8.88s-.25.69-.77.69a7,7,0,0,1-1.16-.13,10,10,0,0,0-1.75,0c-.7,0-1.38.14-2.13.25A4.69,4.69,0,0,1,286,93.59Zm-5.59-5.11a.3.3,0,0,1,.14.06,3.17,3.17,0,0,0,.59.32,2,2,0,0,0,.7.13,6.48,6.48,0,0,0,1.16-.18,12.89,12.89,0,0,0,2.09-.6,1.59,1.59,0,0,0,.57-.36.92.92,0,0,1,.7-.18,3.36,3.36,0,0,1,1.19.24.86.86,0,0,1,.66.83c0,.48-.59.68-1.12.79-1,.18-2.5.54-3.45.74a13,13,0,0,1-1.45.22,1.83,1.83,0,0,1-1.32-.67c-.25-.25-.59-.63-.59-.94a1.06,1.06,0,0,1,0-.25C280.32,88.52,280.35,88.48,280.41,88.48Zm10.61.31a1.23,1.23,0,0,1,.68,1,.76.76,0,0,1-.7.81c-.25,0-.46-.1-.68-.48a3.82,3.82,0,0,0-1.41-1.54c-.09,0-.12-.09-.12-.14s0-.11.17-.11A3.84,3.84,0,0,1,291,88.79Zm0-1.73a3.48,3.48,0,0,1,1.52.29,1.2,1.2,0,0,1,.75,1,.68.68,0,0,1-.63.75c-.23,0-.41-.07-.7-.48a3.56,3.56,0,0,0-1.48-1.32c-.09,0-.12-.09-.12-.15s.05-.09.16-.1A4.35,4.35,0,0,1,291,87.06Z"/><path class="cls-1" d="M296.4,96l-.56.5a12.87,12.87,0,0,1-4.14,2.4,1,1,0,0,1-.32.07c-.09,0-.16-.05-.16-.12a.17.17,0,0,1,.09-.16l.46-.33a20.92,20.92,0,0,0,3.14-2.81,13.3,13.3,0,0,0,2.33-3.22,1.26,1.26,0,0,0,.14-.38c0-.09-.05-.16-.18-.27a2.29,2.29,0,0,0-.3-.2c-.07,0-.11-.09-.11-.16a.2.2,0,0,1,.13-.16,2.3,2.3,0,0,1,.71-.15,1.92,1.92,0,0,1,1.05.47c.68.47.84.65.84,1,0,.2-.08.29-.33.42a1,1,0,0,0-.4.36c-.48.63-1,1.19-1.41,1.7a2,2,0,0,1,.25.18c.34.27.47.43.47.59A.49.49,0,0,1,298,96s0,.11,0,.34c0,1.32,0,2.65.07,4,0,.29,0,.54,0,.71,0,.68-.27,1-.8,1s-.61-.17-.84-.67a3.19,3.19,0,0,1-.31-1.07,1.27,1.27,0,0,1,.15-.56,1.59,1.59,0,0,0,.1-.52c0-.43.06-2.47.06-3.23Z"/><path class="cls-1" d="M309.57,94.1a11.73,11.73,0,0,1-2,4.6,7.74,7.74,0,0,1-4.06,2.91,1.32,1.32,0,0,1-.23,0c-.07,0-.11,0-.11-.09a.19.19,0,0,1,.07-.14,11.31,11.31,0,0,0,2.91-3.49,11.89,11.89,0,0,0,1.34-4.11,5.7,5.7,0,0,0,.11-1c0-.38,0-.51-.28-.65-.09,0-.22-.11-.38-.17s-.16-.09-.16-.14a.24.24,0,0,1,.12-.18,1.73,1.73,0,0,1,.93-.29,2.65,2.65,0,0,1,1.29.47c.52.31.82.51.86.83a7.61,7.61,0,0,0,1.61-2.31,2.67,2.67,0,0,0,.28-.67c0-.14-.05-.18-.37-.12a40.26,40.26,0,0,0-4.51.81,4.82,4.82,0,0,0-1.46.45,1.68,1.68,0,0,1-.91.34,1.75,1.75,0,0,1-1.15-.58c-.37-.34-.87-.88-.87-1.29a2.24,2.24,0,0,1,0-.49c0-.11.09-.16.16-.16a.18.18,0,0,1,.16.07,5,5,0,0,0,.72.47,1.58,1.58,0,0,0,.71.16,10.78,10.78,0,0,0,1.58-.18c1.66-.24,3.41-.49,5-.71.47,0,.43,0,.73-.32a1,1,0,0,1,.63-.23,5.14,5.14,0,0,1,1.7.93c.73.56,1.28,1.18,1.28,1.68,0,.33-.28.51-.64.53a1.78,1.78,0,0,0-1.12.37,19.65,19.65,0,0,1-3.83,2A2.3,2.3,0,0,0,309.57,94.1Z"/><path class="cls-1" d="M323.09,95.65,323.2,99c0,.81-.27,1.17-1.43,1.17-.55,0-.62-.07-.62-.52V98.7h-1.5v1.59c0,.58-.47.9-1.4.9-.5,0-.57-.07-.57-.61l.12-5.2v-6.9a4.28,4.28,0,0,0-.16-1.5l.11-.12a10.25,10.25,0,0,1,2.2.86h1c.64-.9.8-1,1-1s.37.09.91.63c.68.7.79.9.79,1.12s-.11.25-.59.47v6.42h1V89.93a3.9,3.9,0,0,0-.13-1.27l.13-.12a8.06,8.06,0,0,1,2.2.88h.84v-.36a11.37,11.37,0,0,0-.16-3.14l.14-.13c2,.27,2.72.45,2.72.8s-.15.34-.7.5c0,.85,0,1.63,0,2.33H330c.69-.83.85-1,1-1s.37.07,1,.61,1,.83,1,1-.18.32-.69.58v4.65c.6-1.3.78-1.48.92-1.48s.27.08.65.58c.5.67.57.85.57,1s-.14.24-.41.24h-4.86c.71,2,2.13,3.59,5.39,4.93l-.05.23a3.8,3.8,0,0,0-1.68,1.48c-.14.26-.25.34-.37.34a.8.8,0,0,1-.54-.25c-1.91-1.59-2.88-3.54-3.09-6.73h0c0,.18-.07.38-.1.56-.66,3.39-3.22,5.79-7.81,6.59l-.11-.17c3.43-1.29,5.5-3.59,6.08-7ZM321.15,93V88.05h-1.09c0,.11-.16.18-.41.27V93Zm-1.5,5.4h1.5V93.3h-1.5Zm7.25-3.06a24.26,24.26,0,0,0,.21-2.58c.06-1,.06-2,.06-3h-.77A.83.83,0,0,1,326,90v5.36Zm3.31,0V89.75h-1.06c0,1.22,0,2.43-.11,3.64,0,.65-.1,1.3-.19,1.93Z"/><path class="cls-1" d="M343.66,92.63v.08c0,.65-.38.86-1.29.86-.51,0-.6,0-.6-.56l.1-1.71v-.85c-.48.31-1,.6-1.44.89v0c0,.2-.13.31-.67.49v10c0,.72-.58.92-1.51.92-.56,0-.61,0-.61-.65l.16-5.92V93.83a20,20,0,0,1-1.56,1.64l-.14-.13A24.28,24.28,0,0,0,339,86.77a3.57,3.57,0,0,0,.06-.56,1.25,1.25,0,0,0-.06-.4l.15-.11c2.45.56,2.84.74,2.84,1s-.11.34-.73.47A19.86,19.86,0,0,1,339.73,91a2,2,0,0,1,.59.21A15.71,15.71,0,0,0,343,86.84a3.4,3.4,0,0,0,.28-1l.2-.11c2.12.76,2.41,1,2.41,1.28s-.18.33-.73.37c-.06.09-.13.16-.18.25h2c.66-.8.8-.9.91-.9s.32.07,1.09.74.75.7.75,1-.19.35-.8.4c-.48.31-.95.6-1.45.87h2.36c.71-.83.93-1,1-1s.38.09,1,.63.86.76.86,1-.18.34-.7.59v.56l.11,1.05c0,.7-.48.9-1.38.9h-.09c1.57,1.14,1.86,1.43,1.86,1.7s-.07.36-.43.36a3.15,3.15,0,0,1-.61-.07,24.05,24.05,0,0,1-2.21,1,10.15,10.15,0,0,0,4,3.17v.2a3.44,3.44,0,0,0-1.52,1.52c-.14.27-.25.4-.41.4s-.19,0-.46-.27c-2.18-1.9-3.31-5.13-3.47-8.31a.66.66,0,0,1-.25.07,12.06,12.06,0,0,1-1.41,1,5.64,5.64,0,0,1,2.63,4.91,4.26,4.26,0,0,1-.65,2.72,2.89,2.89,0,0,1-2.12.92c-.45,0-.5,0-.56-.38-.09-.67-.37-1.12-1.39-1.44v-.2a11.27,11.27,0,0,0,2,0c.56-.08.81-.44.82-1.61a18.12,18.12,0,0,1-6.38,2l0-.17a16.32,16.32,0,0,0,6.27-4c0-.08,0-.17,0-.24a16.64,16.64,0,0,1-6.11,1.9l0-.16a16.86,16.86,0,0,0,5.49-3.53c-.09-.12-.18-.27-.29-.39a13.72,13.72,0,0,1-5.24,1.8L340,96.1a13,13,0,0,0,4.81-3.47Zm1-4.71a10,10,0,0,1-1.46,1.52c.25.07.5.13.73.22h2.27a11.08,11.08,0,0,0,.89-1.74ZM345.82,90h-1.77a.72.72,0,0,1-.39.22v2.11h2.16Zm4.25,2.33V90h-1.91c0,.24-.16.29-.43.36v2Zm-2.23.32a.76.76,0,0,1-.09.28,9.25,9.25,0,0,0,1.16,2.92,14,14,0,0,0,1.25-1.77,1.91,1.91,0,0,0,.31-.67c-.32,0-.4-.16-.4-.61v-.15Z"/><path class="cls-1" d="M364.62,96.84a2.07,2.07,0,0,0-.21-1.21l.1-.12c2.58.3,2.93.43,2.93.72s-.14.34-.64.48v.67h1.09c1-1.44,1.23-1.6,1.39-1.6s.43.1,1.18.74.88.81.88,1-.09.22-.38.22H366.8l.16,3.17c0,1.36-1.25,1.92-2.61,1.92-.48,0-.52-.07-.59-.47-.1-.63-.41-1.07-1.89-1.5v-.2a12.19,12.19,0,0,0,1.91,0c.66-.07.84-.21.84-.84v-2h-5.74c-1.84,0-3.44,0-4.37.14l-.16-.61c1,.11,2.64.14,4.53.14h5.74Zm-5.45-1.79c0,.8-.46,1.12-1.54,1.12-.59,0-.69-.11-.69-.65l.14-3.72V90.52a3.13,3.13,0,0,0-.21-1.39L357,89a11.12,11.12,0,0,1,2.56.86h2.07V88.23h-2.11c-1.84,0-3.45,0-4.38.15l-.16-.62c1,.11,2.65.15,4.54.15h2.11v-.55a3.13,3.13,0,0,0-.23-1.46l.12-.12c2.36.3,3,.45,3,.79s-.16.38-.71.54v.8h3.56c1-1.45,1.23-1.61,1.39-1.61s.38.11,1.13.74.87.81.87,1-.09.22-.37.22h-6.58v1.64h2.36c.71-.85.93-1,1.11-1s.43.09,1.14.65.95.83.95,1-.16.38-.68.62v.77l.14,2.71c0,.89-.59,1.1-1.68,1.1-.62,0-.69,0-.69-.63v0ZM358,98c2.45,0,3.63.94,3.63,2.17a1.33,1.33,0,0,1-1.36,1.46,1.1,1.1,0,0,1-1.14-1.1,3,3,0,0,0-1.22-2.38Zm3.63-7.81h-2c-.06.11-.18.18-.45.29V92.2h2.45Zm0,2.33h-2.45v2.2h2.45Zm4.81-.33v-2h-2.65v2Zm-2.65,2.53h2.65v-2.2h-2.65Z"/><path class="cls-1" d="M375.61,89.11a20.48,20.48,0,0,0-2.31.15l-.16-.61a25.75,25.75,0,0,0,3,.14h1.62c.86-1.34,1-1.5,1.2-1.5s.34.11,1,.69.74.76.74.9-.09.23-.36.23h-2.07c0,.26-.16.37-.54.49v6.92c1.27-.27,2.57-.58,3.77-.91l.09.17a46.4,46.4,0,0,1-6.92,3.77,2.09,2.09,0,0,1-.55.18c-.11,0-.16,0-.3-.29-.27-.52-.61-1.32-.91-2.09l.1-.15c.56,0,1-.09,1.56-.16l1.07-.15Zm11.15,1.63c1.34.31,1.66.49,1.66.68s-.14.31-.73.44a18.1,18.1,0,0,1-2.41,5.72,11.4,11.4,0,0,0,4.82,2.73v.21a3.23,3.23,0,0,0-1.75,1.56c-.18.32-.3.47-.43.47a1.21,1.21,0,0,1-.59-.26,11.56,11.56,0,0,1-3.3-3.21c-2,2-4.65,3-8.33,3.61l-.09-.2a14.81,14.81,0,0,0,7.36-5,13.13,13.13,0,0,1-.8-2.56,20.41,20.41,0,0,1-.41-3.47,12.48,12.48,0,0,1-3.24,3.36l-.14-.15a19.06,19.06,0,0,0,3.2-7.87,3.75,3.75,0,0,0,.05-.56c0-.12,0-.27,0-.43l.14-.11c2.16.52,3,.76,3,1.08s-.1.33-.77.53c-.5,1.1-1,2.13-1.53,3.08h4.23c.9-1.31,1.11-1.58,1.27-1.58s.47.16,1.11.68.86.76.86,1-.11.25-.43.25Zm-4.54,0a2.32,2.32,0,0,0-.14.23,12.37,12.37,0,0,0,1.86,5,15.75,15.75,0,0,0,1.5-4.33,5.51,5.51,0,0,0,.1-.9Z"/><path class="cls-1" d="M408.5,122.4a42.82,42.82,0,0,0,4.88-2.12c1.78-.89,3.61-1.91,5.48-3.08a35,35,0,0,0,5.21-4,25.44,25.44,0,0,0,6.12-8.43,23.27,23.27,0,0,0,2-9.35q0-5-2.39-7.64A8.69,8.69,0,0,0,423,85.15q-4.41,0-6.77,1.65a5.1,5.1,0,0,0-2.35,4.33,7.75,7.75,0,0,0,.56,3,6.57,6.57,0,0,1,.55,2.53,2.58,2.58,0,0,1-1,2,4.58,4.58,0,0,1-3,.87,4.14,4.14,0,0,1-3.18-1.05,4,4,0,0,1-1-2.81,10.54,10.54,0,0,1,.88-4.19,10.41,10.41,0,0,1,2.81-3.78,14.47,14.47,0,0,1,5.11-2.76,24.37,24.37,0,0,1,7.69-1.06,27.59,27.59,0,0,1,8.24,1.06,16.68,16.68,0,0,1,5.53,2.8,10.58,10.58,0,0,1,3.13,4,11.32,11.32,0,0,1,1,4.61,12.58,12.58,0,0,1-1.61,6.08,25.14,25.14,0,0,1-4.29,5.62,45.1,45.1,0,0,1-6,5,78.8,78.8,0,0,1-6.86,4.28c-2.34,1.29-4.59,2.43-6.77,3.41s-4.1,1.78-5.76,2.39l.19.19h17a40.79,40.79,0,0,0,5.57-.33,10.44,10.44,0,0,0,4-1.28,7.45,7.45,0,0,0,2.62-2.72,14.78,14.78,0,0,0,1.57-4.52h.92v10.14H405.1v-1.11A33.76,33.76,0,0,0,408.5,122.4Z"/><path class="cls-1" d="M447,96.52a23.25,23.25,0,0,1,5-6.63,23.49,23.49,0,0,1,6.87-4.42,18.72,18.72,0,0,1,15.19,0,23.49,23.49,0,0,1,6.87,4.42,23.25,23.25,0,0,1,5,6.63,18.21,18.21,0,0,1,1.93,8.34,18.39,18.39,0,0,1-1.79,8,22.41,22.41,0,0,1-4.79,6.63,24.11,24.11,0,0,1-6.82,4.56,19.51,19.51,0,0,1-15.93,0,24.11,24.11,0,0,1-6.82-4.56,22.41,22.41,0,0,1-4.79-6.63,18.53,18.53,0,0,1-1.79-8A18.21,18.21,0,0,1,447,96.52Zm8.06,18.56a16.72,16.72,0,0,0,2.76,6,8.17,8.17,0,0,0,4,2.81,16,16,0,0,0,9.31,0,8.17,8.17,0,0,0,4-2.81,16.72,16.72,0,0,0,2.76-6,39.79,39.79,0,0,0,1.06-10.22,39.83,39.83,0,0,0-1.06-10.23,16.59,16.59,0,0,0-2.76-6,8.1,8.1,0,0,0-4-2.81,16,16,0,0,0-9.31,0,8.1,8.1,0,0,0-4,2.81,16.59,16.59,0,0,0-2.76,6A39.83,39.83,0,0,0,454,104.86,39.79,39.79,0,0,0,455.06,115.08Z"/><path class="cls-1" d="M492.78,122.4a43.6,43.6,0,0,0,4.88-2.12c1.78-.89,3.61-1.91,5.48-3.08a35,35,0,0,0,5.2-4,25.33,25.33,0,0,0,6.13-8.43,23.27,23.27,0,0,0,2-9.35q0-5-2.4-7.64a8.66,8.66,0,0,0-6.81-2.67q-4.42,0-6.77,1.65a5.08,5.08,0,0,0-2.35,4.33,7.75,7.75,0,0,0,.55,3,6.57,6.57,0,0,1,.55,2.53,2.55,2.55,0,0,1-1,2,4.56,4.56,0,0,1-3,.87A4.13,4.13,0,0,1,492,98.46a4,4,0,0,1-1-2.81,10.7,10.7,0,0,1,.87-4.19,10.52,10.52,0,0,1,2.81-3.78,14.56,14.56,0,0,1,5.11-2.76,24.41,24.41,0,0,1,7.69-1.06,27.61,27.61,0,0,1,8.25,1.06,16.62,16.62,0,0,1,5.52,2.8,10.61,10.61,0,0,1,3.14,4,11.48,11.48,0,0,1,1,4.61,12.58,12.58,0,0,1-1.61,6.08,24.79,24.79,0,0,1-4.28,5.62,45.1,45.1,0,0,1-6,5,79,79,0,0,1-6.87,4.28q-3.49,1.93-6.77,3.41t-5.75,2.39l.18.19h17a40.58,40.58,0,0,0,5.57-.33,10.32,10.32,0,0,0,4-1.28,7.47,7.47,0,0,0,2.63-2.72,14.79,14.79,0,0,0,1.56-4.52h.93v10.14H489.37v-1.11A33.77,33.77,0,0,0,492.78,122.4Z"/><path class="cls-1" d="M533.76,122.4a42.82,42.82,0,0,0,4.88-2.12c1.78-.89,3.61-1.91,5.48-3.08a35,35,0,0,0,5.21-4,25.44,25.44,0,0,0,6.12-8.43,23.27,23.27,0,0,0,2-9.35c0-3.31-.79-5.86-2.39-7.64a8.69,8.69,0,0,0-6.82-2.67q-4.41,0-6.77,1.65a5.1,5.1,0,0,0-2.35,4.33,7.75,7.75,0,0,0,.56,3,6.57,6.57,0,0,1,.55,2.53,2.58,2.58,0,0,1-1,2,4.58,4.58,0,0,1-3,.87A4.14,4.14,0,0,1,533,98.46a4,4,0,0,1-1-2.81,10.54,10.54,0,0,1,.88-4.19,10.41,10.41,0,0,1,2.81-3.78,14.47,14.47,0,0,1,5.11-2.76,24.37,24.37,0,0,1,7.69-1.06,27.59,27.59,0,0,1,8.24,1.06,16.68,16.68,0,0,1,5.53,2.8,10.58,10.58,0,0,1,3.13,4,11.32,11.32,0,0,1,1,4.61,12.58,12.58,0,0,1-1.61,6.08,25.14,25.14,0,0,1-4.29,5.62,45.1,45.1,0,0,1-6,5,78.8,78.8,0,0,1-6.86,4.28c-2.34,1.29-4.59,2.43-6.77,3.41s-4.1,1.78-5.76,2.39l.19.19h17a40.79,40.79,0,0,0,5.57-.33,10.44,10.44,0,0,0,4-1.28,7.45,7.45,0,0,0,2.62-2.72,14.78,14.78,0,0,0,1.57-4.52h.92v10.14H530.36v-1.11A33.76,33.76,0,0,0,533.76,122.4Z"/><path class="cls-1" d="M0,33.28a31.62,31.62,0,0,1,2.75-13.2A36.62,36.62,0,0,1,9.81,9.55a33,33,0,0,1,9.73-7A25.28,25.28,0,0,1,30.35,0,26.3,26.3,0,0,1,41.56,2.54a32.35,32.35,0,0,1,9.73,7,34.31,34.31,0,0,1,6.84,10.53,33.35,33.35,0,0,1,2.58,13.2A33.06,33.06,0,0,1,58.35,45.5,35.55,35.55,0,0,1,51.9,56.12a32.91,32.91,0,0,1-9.64,7.49,25.53,25.53,0,0,1-11.91,2.86A26.84,26.84,0,0,1,18.23,63.7a31.13,31.13,0,0,1-9.64-7.36A33.91,33.91,0,0,1,2.27,45.72,35,35,0,0,1,0,33.28Zm10,0a82,82,0,0,0,1.05,14,28.49,28.49,0,0,0,3.49,10,15.58,15.58,0,0,0,6.28,6,20.66,20.66,0,0,0,9.5,2,20.82,20.82,0,0,0,9.47-2,15.61,15.61,0,0,0,6.32-6,28.69,28.69,0,0,0,3.49-10,82,82,0,0,0,1-14,88.56,88.56,0,0,0-.79-11.91,33.09,33.09,0,0,0-3-10.26,18.12,18.12,0,0,0-6.19-7.18q-4-2.68-10.34-2.68T20,3.93a18.15,18.15,0,0,0-6.2,7.18,33.09,33.09,0,0,0-3,10.26A87,87,0,0,0,10,33.28Z"/><path class="cls-1" d="M59.55,63.88h9.69v-61H59.55V1.61H76c.82,0,1.63,0,2.44-.05s1.63-.07,2.45-.13,1.61,0,2.4-.05,1.58,0,2.39,0a33.65,33.65,0,0,1,9.21,1.2A23.37,23.37,0,0,1,102.16,6,16.4,16.4,0,0,1,107,11.33a14,14,0,0,1,1.75,7,12.89,12.89,0,0,1-2,7.14,17.57,17.57,0,0,1-5.32,5.26A26.42,26.42,0,0,1,93.7,34a35.63,35.63,0,0,1-9.2,1.16,27.93,27.93,0,0,1-3.14-.22c-1.28-.15-2.41-.31-3.4-.49V63.88h9.68v1.25H59.55ZM78,33.19a33.5,33.5,0,0,0,3.66.54c1.28.12,2.41.17,3.4.17,4.31,0,7.66-1.29,10.08-3.88s3.62-6.5,3.62-11.73a28,28,0,0,0-.87-7.58A10.93,10.93,0,0,0,95.1,5.84,10.31,10.31,0,0,0,90.21,3.3,31.82,31.82,0,0,0,83,2.59c-1.11,0-2.11,0-3,.09s-1.59.12-2.05.18Z"/><path class="cls-1" d="M109.1,63.88h9.68v-61H109.1V1.61H159V17h-1a45.93,45.93,0,0,0-2.44-6.11,17.1,17.1,0,0,0-3.14-4.46,11.46,11.46,0,0,0-4.36-2.72A18.37,18.37,0,0,0,142,2.86H127.5V30.42h5.67a19,19,0,0,0,4.88-.53,7.45,7.45,0,0,0,3.45-2,12,12,0,0,0,2.44-4,50.05,50.05,0,0,0,2-6.56h1V45.06h-1c-.4-1.73-.82-3.39-1.26-5a16,16,0,0,0-1.83-4.28,8.75,8.75,0,0,0-3.14-3,10.3,10.3,0,0,0-5.1-1.12H127.5V63.88H144a14.23,14.23,0,0,0,8-2.1,18.75,18.75,0,0,0,5.19-5,22,22,0,0,0,3-6,31.92,31.92,0,0,0,1.22-5.18h1V65.13H109.1Z"/><path class="cls-1" d="M164.57,63.88h9.68v-61h-9.68V1.61h18.67l29.48,48.62h.17V2.86h-9.68V1.61h20.67V2.86H214.2V66.38h-1.75L175.73,6.51h-.17V63.88h9.68v1.25H164.57Z"/><path class="cls-1" d="M238.4,49h1a37.05,37.05,0,0,0,2.52,8.23,24.33,24.33,0,0,0,3.4,5.51,15.21,15.21,0,0,0,3.89,3.34,16.49,16.49,0,0,0,4.11,1.72,19.44,19.44,0,0,0,4,.63c1.27.06,2.46.09,3.58.09a17.83,17.83,0,0,0,7.69-1.44,13.59,13.59,0,0,0,4.77-3.66,13.28,13.28,0,0,0,2.47-4.79,18.12,18.12,0,0,0,.71-4.75,11.78,11.78,0,0,0-1.15-5.42,12.91,12.91,0,0,0-2.91-3.84A16.63,16.63,0,0,0,268.57,42a25.91,25.91,0,0,0-3.93-1.53l-10.16-3.17q-7.15-2.25-10.82-6T240,21.43a19.74,19.74,0,0,1,1.42-7.55,17.66,17.66,0,0,1,4-6,18.76,18.76,0,0,1,6.14-4,23.06,23.06,0,0,1,13-.9,23.26,23.26,0,0,1,3.58,1.22l2.69,1.22a5.87,5.87,0,0,0,2.43.54,2.68,2.68,0,0,0,1.55-.31,6.22,6.22,0,0,0,1.1-1.58h1.24V20.43H276a27.37,27.37,0,0,0-1.81-6.28,19.5,19.5,0,0,0-3.32-5.33,15.4,15.4,0,0,0-4.9-3.7,15,15,0,0,0-6.67-1.41,21.23,21.23,0,0,0-4.68.59,14.41,14.41,0,0,0-4.77,2,11.88,11.88,0,0,0-3.67,3.79,11.19,11.19,0,0,0-1.46,6A9.89,9.89,0,0,0,245.91,21a11.41,11.41,0,0,0,3,3.44,18,18,0,0,0,4.07,2.34,47.86,47.86,0,0,0,4.55,1.68l10.69,3.43c1.11.36,2.53.85,4.24,1.45a18.81,18.81,0,0,1,5,2.71,15.49,15.49,0,0,1,4.15,4.79,15,15,0,0,1,1.72,7.59,21.48,21.48,0,0,1-1.54,8.09,20.2,20.2,0,0,1-4.46,6.77,21.81,21.81,0,0,1-7.07,4.7,23.68,23.68,0,0,1-9.37,1.77c-1.23,0-2.32,0-3.27,0a23.86,23.86,0,0,1-2.65-.22c-.82-.13-1.65-.26-2.47-.41a25.34,25.34,0,0,1-2.74-.68c-1.18-.36-2.44-.78-3.8-1.26a10.58,10.58,0,0,0-3.53-.73,2.33,2.33,0,0,0-1.81.55,4.49,4.49,0,0,0-.84,1.44H238.4Z"/><path class="cls-1" d="M297.86,67.16h9.81V5.34h-5.13a28.37,28.37,0,0,0-4,.32,11.21,11.21,0,0,0-4.46,1.76A15.4,15.4,0,0,0,289.78,12a29.86,29.86,0,0,0-3.58,8.63h-1V4.08h53.71V20.61h-1A30.14,30.14,0,0,0,334.39,12a15.53,15.53,0,0,0-4.33-4.56,11.26,11.26,0,0,0-4.46-1.76,28.48,28.48,0,0,0-4-.32H316.5V67.16h9.81v1.26H297.86Z"/><path class="cls-1" d="M343.44,3.66h28.45V4.92h-9.81V48.57a38.71,38.71,0,0,0,.93,9.17,15.34,15.34,0,0,0,2.78,6.06,10.47,10.47,0,0,0,4.59,3.3,18.44,18.44,0,0,0,6.28,1,23.89,23.89,0,0,0,8.74-1.49,14.76,14.76,0,0,0,6.54-5.29A20.22,20.22,0,0,0,393.49,59a14.4,14.4,0,0,0,1.15-2.75,22.78,22.78,0,0,0,.75-3.8,48.83,48.83,0,0,0,.26-5.47v-42h-9.81V3.66h20.94V4.92H397V48.75a27.9,27.9,0,0,1-.8,6.91,18.89,18.89,0,0,1-3.27,6.47,17,17,0,0,1-6.62,5.24,26.79,26.79,0,0,1-11.22,2q-10.6,0-16.22-5.34t-5.61-16.35V4.92h-9.8Z"/><path class="cls-1" d="M410.12,67.16h9.81V5.34h-9.81V4.08h16.43c.83,0,1.65,0,2.48,0s1.65-.07,2.47-.14,1.65,0,2.48,0,1.64,0,2.47,0c1.77,0,3.34,0,4.73.08s2.68.17,3.88.32a29.38,29.38,0,0,1,3.45.63c1.09.28,2.25.62,3.49,1a31.71,31.71,0,0,1,9.32,4.84,27.21,27.21,0,0,1,6.45,7,30,30,0,0,1,3.71,8.68,40.09,40.09,0,0,1,1.19,9.85A37.65,37.65,0,0,1,471.26,47a30.32,30.32,0,0,1-3.89,8.4,28.73,28.73,0,0,1-5.79,6.33A30,30,0,0,1,454.47,66a25.8,25.8,0,0,1-4,1.54,27.82,27.82,0,0,1-3.88.81q-2,.27-4.38.36c-1.59.06-3.41.09-5.48.09-.88,0-1.82,0-2.82,0s-2-.08-3-.14-2-.1-3-.13-1.9,0-2.78,0h-15Zm18.64,0c1,.12,2.17.21,3.49.27s2.79.09,4.38.09a56.24,56.24,0,0,0,6-.32,22.21,22.21,0,0,0,5.65-1.35,18,18,0,0,0,5-3,19,19,0,0,0,4.2-5.1,34.63,34.63,0,0,0,3.93-10,53.18,53.18,0,0,0,1.1-11.16,58.86,58.86,0,0,0-1.32-13,26.25,26.25,0,0,0-4.38-9.94,20,20,0,0,0-8.08-6.37,30.37,30.37,0,0,0-12.46-2.26q-2.2,0-4,.09l-3.49.18Z"/><path class="cls-1" d="M475.32,67.16h9.81V5.34h-9.81V4.08h28.45V5.34H494V67.16h9.8v1.26H475.32Z"/><path class="cls-1" d="M505.54,36.16a32.15,32.15,0,0,1,2.78-13.38,37.35,37.35,0,0,1,7.16-10.66A33.5,33.5,0,0,1,525.33,5a25.63,25.63,0,0,1,10.95-2.57A26.73,26.73,0,0,1,547.64,5a32.86,32.86,0,0,1,9.85,7.1,35.17,35.17,0,0,1,6.93,10.66A33.89,33.89,0,0,1,567,36.16a33.52,33.52,0,0,1-2.39,12.38,36.09,36.09,0,0,1-6.53,10.75,33,33,0,0,1-9.77,7.59,25.92,25.92,0,0,1-12.06,2.9A27.4,27.4,0,0,1,524,67a31.69,31.69,0,0,1-9.76-7.46,34.3,34.3,0,0,1-6.4-10.76A35.23,35.23,0,0,1,505.54,36.16Zm10.16,0a83,83,0,0,0,1.06,14.19,29.08,29.08,0,0,0,3.53,10.12,15.82,15.82,0,0,0,6.36,6,24.2,24.2,0,0,0,19.22,0,15.73,15.73,0,0,0,6.4-6,29.08,29.08,0,0,0,3.54-10.12,83,83,0,0,0,1.06-14.19,89.3,89.3,0,0,0-.8-12.07,33.65,33.65,0,0,0-3-10.39,18.45,18.45,0,0,0-6.28-7.27q-4-2.71-10.47-2.72T525.81,6.43a18.35,18.35,0,0,0-6.27,7.27,33.66,33.66,0,0,0-3,10.39A89.32,89.32,0,0,0,515.7,36.16Z"/></g></g></svg>